<svg width="48" height="48" viewBox="0 0 48 48" fill="none" xmlns="http://www.w3.org/2000/svg">
<path d="M40.2686 17.7067H30.3402C29.655 17.7067 29.0991 17.1512 29.0991 16.4657C29.0991 15.7801 29.655 15.2246 30.3402 15.2246H40.2686C40.9538 15.2246 41.5096 15.7801 41.5096 16.4657C41.5096 17.1512 40.9538 17.7067 40.2686 17.7067Z" fill="white"/>
<path d="M40.2686 22.9469H30.3402C29.655 22.9469 29.0991 22.3915 29.0991 21.7059C29.0991 21.0203 29.655 20.4648 30.3402 20.4648H40.2686C40.9538 20.4648 41.5096 21.0203 41.5096 21.7059C41.5096 22.3915 40.9538 22.9469 40.2686 22.9469Z" fill="white"/>
<path d="M40.2686 28.1867H35.3044C34.6192 28.1867 34.0634 27.6312 34.0634 26.9456C34.0634 26.2601 34.6192 25.7046 35.3044 25.7046H40.2686C40.9538 25.7046 41.5097 26.2601 41.5097 26.9456C41.5097 27.6312 40.9538 28.1867 40.2686 28.1867Z" fill="white"/>
<path d="M40.2686 33.4269H37.7865C37.1013 33.4269 36.5454 32.8714 36.5454 32.1859C36.5454 31.5003 37.1013 30.9448 37.7865 30.9448H40.2686C40.9537 30.9448 41.5096 31.5003 41.5096 32.1859C41.5096 32.8714 40.9537 33.4269 40.2686 33.4269Z" fill="white"/>
<path d="M14.1734 33.4267H7.17391C6.48875 33.4267 5.93286 32.8712 5.93286 32.1857V16.4657C5.93286 15.7801 6.48875 15.2246 7.17391 15.2246H25.376C26.0612 15.2246 26.6171 15.7801 26.6171 16.4657V24.0942C26.6171 24.7797 26.0612 25.3352 25.376 25.3352C24.6909 25.3352 24.135 24.7797 24.135 24.0942V17.7067H8.41497V30.9446H14.1734C14.8586 30.9446 15.4145 31.5001 15.4145 32.1857C15.4145 32.8712 14.8586 33.4267 14.1734 33.4267Z" fill="white"/>
<path d="M43.5781 38.391H37.7865C37.1013 38.391 36.5454 37.8355 36.5454 37.1499C36.5454 36.4644 37.1013 35.9089 37.7865 35.9089H43.5781C44.2624 35.9089 44.8191 35.3522 44.8191 34.6678V4.05519C44.8191 3.37083 44.2624 2.81414 43.5781 2.81414H3.86439C3.18003 2.81414 2.62334 3.37083 2.62334 4.05519V34.6678C2.62334 35.3522 3.18003 35.9089 3.86439 35.9089H14.1653C14.8505 35.9089 15.4063 36.4644 15.4063 37.1499C15.4063 37.8355 14.8505 38.391 14.1653 38.391H3.86439C1.81132 38.391 0.141235 36.7209 0.141235 34.6678V4.05519C0.141235 2.00212 1.81132 0.332031 3.86439 0.332031H43.5781C45.6311 0.332031 47.3012 2.00212 47.3012 4.05519V34.6678C47.3012 36.7209 45.6311 38.391 43.5781 38.391Z" fill="white"/>
<path d="M46.0602 12.7424H1.38229C0.697128 12.7424 0.141235 12.1869 0.141235 11.5013C0.141235 10.8157 0.697128 10.2603 1.38229 10.2603H46.0602C46.7453 10.2603 47.3012 10.8157 47.3012 11.5013C47.3012 12.1869 46.7453 12.7424 46.0602 12.7424Z" fill="white"/>
<path d="M41.096 7.77849H16.2741C15.589 7.77849 15.0331 7.223 15.0331 6.53744C15.0331 5.85187 15.589 5.29639 16.2741 5.29639H41.096C41.7812 5.29639 42.337 5.85187 42.337 6.53744C42.337 7.223 41.7812 7.77849 41.096 7.77849Z" fill="white"/>
<path d="M7.17389 7.77849H6.34652C5.66136 7.77849 5.10547 7.223 5.10547 6.53744C5.10547 5.85187 5.66136 5.29639 6.34652 5.29639H7.17389C7.85905 5.29639 8.41494 5.85187 8.41494 6.53744C8.41494 7.223 7.85905 7.77849 7.17389 7.77849Z" fill="white"/>
<path d="M12.1381 7.77849H11.3108C10.6256 7.77849 10.0697 7.223 10.0697 6.53744C10.0697 5.85187 10.6256 5.29639 11.3108 5.29639H12.1381C12.8233 5.29639 13.3792 5.85187 13.3792 6.53744C13.3792 7.223 12.8233 7.77849 12.1381 7.77849Z" fill="white"/>
<path d="M28.403 47.492H19.0394C18.191 47.492 17.3879 47.1219 16.8368 46.4767C16.2858 45.8316 16.0466 44.9812 16.1791 44.1429L16.5629 41.719C13.9677 40.2404 12.5521 37.8269 12.5521 34.8334C12.5521 29.2091 17.4315 22.6709 23.7216 22.6709C30.0117 22.6709 34.8911 29.209 34.8911 34.8334C34.8911 37.8269 33.4755 40.2404 30.8803 41.7194L31.2632 44.1437C31.3958 44.9824 31.155 45.8332 30.6039 46.4779C30.0529 47.1223 29.2514 47.492 28.403 47.492ZM23.7216 25.153C18.9093 25.153 15.0342 30.4489 15.0342 34.8334C15.0342 37.1725 16.1799 38.8741 18.439 39.8909C18.9497 40.1204 19.2438 40.6637 19.1557 41.2168L18.6305 44.5315C18.6047 44.6951 18.6782 44.8107 18.7242 44.8648C18.7711 44.919 18.8729 45.0098 19.0394 45.0098H28.403C28.5686 45.0098 28.6713 44.9194 28.7173 44.8652C28.7634 44.8111 28.8377 44.6955 28.8118 44.5307L28.2875 41.2164C28.2002 40.6633 28.4935 40.1204 29.0041 39.8909C31.2632 38.8741 32.4089 37.1725 32.4089 34.8334C32.4089 30.4489 28.5339 25.153 23.7216 25.153Z" fill="white"/>
<path d="M21.2398 47.4918C20.5547 47.4918 19.9988 46.9363 19.9988 46.2507V42.9412C19.9988 42.2557 20.5547 41.7002 21.2398 41.7002C21.925 41.7002 22.4809 42.2557 22.4809 42.9412V46.2507C22.4809 46.9363 21.925 47.4918 21.2398 47.4918Z" fill="white"/>
<path d="M26.2041 47.4918C25.5189 47.4918 24.963 46.9363 24.963 46.2507V42.9412C24.963 42.2557 25.5189 41.7002 26.2041 41.7002C26.8892 41.7002 27.4451 42.2557 27.4451 42.9412V46.2507C27.4451 46.9363 26.8892 47.4918 26.2041 47.4918Z" fill="white"/>
<path d="M19.5845 37.0465C20.7269 37.0465 21.653 35.889 21.653 34.461C21.653 33.0331 20.7269 31.8755 19.5845 31.8755C18.4422 31.8755 17.5161 33.0331 17.5161 34.461C17.5161 35.889 18.4422 37.0465 19.5845 37.0465Z" fill="white"/>
<path d="M27.8582 37.0465C29.0006 37.0465 29.9266 35.889 29.9266 34.461C29.9266 33.0331 29.0006 31.8755 27.8582 31.8755C26.7159 31.8755 25.7898 33.0331 25.7898 34.461C25.7898 35.889 26.7159 37.0465 27.8582 37.0465Z" fill="white"/>
</svg>
