<svg width="42" height="43" viewBox="0 0 42 43" fill="none" xmlns="http://www.w3.org/2000/svg">
<path d="M24.6842 34.3825H3.31579C1.48735 34.3825 0 32.8952 0 31.0667V3.80358C0 1.97515 1.48735 0.487793 3.31579 0.487793H34.2632C36.0916 0.487793 37.5789 1.97515 37.5789 3.80358V6.01411C37.5789 6.62466 37.0839 7.11937 36.4737 7.11937C35.8635 7.11937 35.3684 6.62466 35.3684 6.01411V3.80358C35.3684 3.1941 34.8726 2.69832 34.2632 2.69832H3.31579C2.70631 2.69832 2.21053 3.1941 2.21053 3.80358V31.0667C2.21053 31.6762 2.70631 32.172 3.31579 32.172H24.6842C25.2944 32.172 25.7895 32.6667 25.7895 33.2773C25.7895 33.8878 25.2944 34.3825 24.6842 34.3825Z" fill="white"/>
<path d="M36.4734 22.8584C35.8632 22.8584 35.3682 22.3637 35.3682 21.7531V17.0662C35.3682 16.4556 35.8632 15.9609 36.4734 15.9609C37.0836 15.9609 37.5787 16.4556 37.5787 17.0662V21.7531C37.5787 22.3637 37.0836 22.8584 36.4734 22.8584Z" fill="white"/>
<path d="M12.8943 40.2771C12.2838 40.2771 11.7891 39.7824 11.7891 39.1719V33.2771C11.7891 32.6666 12.2838 32.1719 12.8943 32.1719C13.5049 32.1719 13.9996 32.6666 13.9996 33.2771V39.1719C13.9996 39.7824 13.5049 40.2771 12.8943 40.2771Z" fill="white"/>
<path d="M21.0002 40.2774H9.21073C8.60018 40.2774 8.10547 39.7827 8.10547 39.1722C8.10547 38.5616 8.60018 38.0669 9.21073 38.0669H21.0002C21.6108 38.0669 22.1055 38.5616 22.1055 39.1722C22.1055 39.7827 21.6108 40.2774 21.0002 40.2774Z" fill="white"/>
<path d="M14.3175 23.6347C11.2561 23.6347 8.76562 21.1442 8.76562 18.0832V12.3662C8.76562 10.7061 10.1163 9.35547 11.7767 9.35547H16.8583C18.5184 9.35547 19.869 10.7061 19.869 12.3662V18.0832C19.869 21.1442 17.3786 23.6347 14.3175 23.6347ZM11.7767 11.566C11.3352 11.566 10.9762 11.9251 10.9762 12.3662V18.0832C10.9762 19.9253 12.475 21.4241 14.3175 21.4241C16.1596 21.4241 17.6585 19.9253 17.6585 18.0832V12.3662C17.6585 11.9251 17.2994 11.566 16.8583 11.566H11.7767Z" fill="white"/>
<path d="M16.8588 11.5658H11.7771C11.1666 11.5658 10.6719 11.0711 10.6719 10.4605V9.29158C10.6719 7.28109 12.3075 5.64551 14.3179 5.64551C16.3284 5.64551 17.964 7.2811 17.964 9.29158V10.4605C17.964 11.0711 17.4693 11.5658 16.8588 11.5658ZM12.8824 9.35527H15.7535V9.29158C15.7535 8.50005 15.1095 7.85603 14.3179 7.85603C13.5264 7.85603 12.8824 8.50005 12.8824 9.29158V9.35527Z" fill="white"/>
<path d="M12.8065 8.35748C12.3701 8.35748 11.9567 8.09736 11.7822 7.66813C11.5861 7.1853 11.2663 6.99569 11.253 6.98777C10.7363 6.68843 10.5348 6.02355 10.8184 5.49826C11.1019 4.97261 11.7362 4.75783 12.269 5.02551C12.3752 5.0784 13.3196 5.57957 13.8301 6.83559C14.06 7.40117 13.788 8.04591 13.2224 8.27581C13.0861 8.33122 12.9451 8.35748 12.8065 8.35748Z" fill="white"/>
<path d="M15.827 8.35781C15.6884 8.35781 15.5474 8.33155 15.411 8.27614C14.8455 8.04624 14.5735 7.4015 14.8034 6.83591C15.3139 5.5799 16.2583 5.07872 16.3645 5.02583C16.9106 4.75383 17.5744 4.9733 17.8472 5.51982C18.1202 6.06561 17.8993 6.72942 17.3532 7.0025C17.356 7.0025 17.0441 7.19391 16.8513 7.66846C16.6768 8.09769 16.2634 8.35781 15.827 8.35781Z" fill="white"/>
<path d="M14.3172 23.6323C13.7066 23.6323 13.2119 23.1376 13.2119 22.527V14.5027C13.2119 13.8922 13.7066 13.3975 14.3172 13.3975C14.9277 13.3975 15.4224 13.8922 15.4224 14.5027V22.527C15.4224 23.1376 14.9277 23.6323 14.3172 23.6323Z" fill="white"/>
<path d="M14.3936 15.6069C12.7422 15.6069 11.0908 15.1945 9.4509 14.3699C8.90547 14.0954 8.68564 13.4312 8.95979 12.8858C9.23395 12.3404 9.89883 12.1209 10.4439 12.3947C13.1027 13.7324 15.6864 13.7317 18.3437 12.3947C18.8888 12.1209 19.5537 12.3404 19.8279 12.8858C20.102 13.4312 19.8822 14.0954 19.3367 14.3699C17.6968 15.1945 16.0454 15.6069 14.3936 15.6069Z" fill="white"/>
<path d="M9.87094 13.4716C9.73422 13.4716 9.59535 13.446 9.46078 13.3921L6.28459 12.1217C5.86508 11.954 5.58984 11.5474 5.58984 11.0956V7.91972C5.58984 7.30916 6.08455 6.81445 6.69511 6.81445C7.30566 6.81445 7.80037 7.30916 7.80037 7.91972V10.3472L10.2818 11.3398C10.8485 11.5665 11.1241 12.2098 10.8974 12.7765C10.7247 13.2086 10.3095 13.4716 9.87094 13.4716Z" fill="white"/>
<path d="M8.60019 25.541C8.10476 25.541 7.65431 25.2057 7.52874 24.7034L6.89336 22.1626C6.8009 21.7924 6.9056 21.401 7.17076 21.1264L9.3561 18.8652C9.781 18.4263 10.4797 18.4151 10.919 18.8386C11.3579 19.2628 11.3698 19.9625 10.9456 20.4015L9.18663 22.2216L9.67306 24.1674C9.8213 24.7596 9.46115 25.3597 8.86894 25.5076C8.779 25.5302 8.6887 25.541 8.60019 25.541Z" fill="white"/>
<path d="M4.78984 18.8001C4.50704 18.8001 4.22425 18.6921 4.00838 18.4763C3.57663 18.0449 3.57663 17.3447 4.00838 16.9133L6.12572 14.796C6.38765 14.5337 6.76507 14.4207 7.12629 14.4941L10.0906 15.0939C10.6889 15.2148 11.0757 15.798 10.9548 16.3963C10.8339 16.9943 10.2496 17.3836 9.65235 17.2605L7.26948 16.7784L5.57129 18.4762C5.35542 18.6921 5.07263 18.8001 4.78984 18.8001Z" fill="white"/>
<path d="M18.764 13.4716C18.3254 13.4716 17.9102 13.2086 17.7375 12.7765C17.5109 12.2098 17.7865 11.5665 18.3531 11.3398L20.8342 10.3472V7.91972C20.8342 7.30916 21.3289 6.81445 21.9395 6.81445C22.5497 6.81445 23.0447 7.30916 23.0447 7.91972V11.0956C23.0447 11.5474 22.7699 11.954 22.3496 12.1217L19.1742 13.3921C19.0396 13.446 18.9007 13.4716 18.764 13.4716Z" fill="white"/>
<path d="M20.0349 25.5406C19.9464 25.5406 19.8561 25.5298 19.7661 25.5071C19.1739 25.3592 18.8138 24.7591 18.962 24.1669L19.4484 22.2212L17.6894 20.401C17.2652 19.9621 17.2771 19.2623 17.716 18.8381C18.1543 18.4139 18.854 18.4251 19.279 18.8648L21.4643 21.126C21.7295 21.4005 21.8345 21.792 21.7417 22.1622L21.1063 24.703C20.9807 25.2053 20.5303 25.5406 20.0349 25.5406Z" fill="white"/>
<path d="M23.8449 18.8001C23.5621 18.8001 23.2793 18.6921 23.0634 18.4762L21.3653 16.7784L18.9827 17.2605C18.3866 17.3839 17.8016 16.9946 17.6803 16.3963C17.5594 15.798 17.9462 15.2151 18.5445 15.0939L21.5084 14.4941C21.8704 14.4207 22.2474 14.5337 22.5094 14.796L24.6264 16.9133C25.0581 17.3447 25.0581 18.0449 24.6264 18.4763C24.4105 18.6921 24.1277 18.8001 23.8449 18.8001Z" fill="white"/>
<path d="M40.8948 18.1719H27.6316C27.0214 18.1719 26.5264 17.6771 26.5264 17.0666V6.01395C26.5264 5.4034 27.0214 4.90869 27.6316 4.90869H40.8948C41.505 4.90869 42.0001 5.4034 42.0001 6.01395V17.0666C42.0001 17.6771 41.505 18.1719 40.8948 18.1719ZM28.7369 15.9613H39.7895V7.11922H28.7369V15.9613Z" fill="white"/>
<path d="M32.4958 14.4877C32.1317 14.4877 31.7747 14.3078 31.5639 13.9782L30.3853 12.1361C30.1528 11.7728 30.1528 11.3079 30.3853 10.9445L31.5639 9.10242C31.8928 8.58829 32.5764 8.43825 33.0909 8.76709C33.6046 9.0963 33.755 9.77989 33.4262 10.294L32.6289 11.5403L33.4262 12.7866C33.755 13.3008 33.6046 13.9844 33.0909 14.3136C32.9059 14.4316 32.7001 14.4877 32.4958 14.4877Z" fill="white"/>
<path d="M36.0314 14.4877C35.827 14.4877 35.6212 14.4316 35.4363 14.3136C34.9225 13.9844 34.7721 13.3008 35.101 12.7866L35.8983 11.5403L35.101 10.294C34.7721 9.7799 34.9225 9.0963 35.4363 8.7671C35.9508 8.43825 36.6337 8.58828 36.9632 9.10242L38.1419 10.9445C38.3743 11.3079 38.3743 11.7727 38.1419 12.1361L36.9632 13.9782C36.7524 14.3078 36.3955 14.4877 36.0314 14.4877Z" fill="white"/>
<path d="M24.6842 29.2247H1.10526C0.494708 29.2247 0 28.73 0 28.1194C0 27.5089 0.494708 27.0142 1.10526 27.0142H24.6842C25.2944 27.0142 25.7895 27.5089 25.7895 28.1194C25.7895 28.73 25.2944 29.2247 24.6842 29.2247Z" fill="white"/>
<path d="M32.7896 42.4876C32.6076 42.4876 32.4255 42.4426 32.26 42.3527L26.4588 39.1884C24.6829 38.2195 23.5791 36.3605 23.5791 34.3367V23.1675C23.5791 22.6785 23.9 22.2478 24.3685 22.1082L32.4737 19.6916C32.6716 19.6329 32.8817 19.63 33.0803 19.6844L41.1856 21.8938C41.6663 22.0251 42.0002 22.4619 42.0002 22.9602V34.3367C42.0002 36.3605 40.8963 38.2195 39.1197 39.1884L33.3192 42.3527C33.1537 42.4426 32.9717 42.4876 32.7896 42.4876ZM25.7896 23.9914V34.3367C25.7896 35.5509 26.4516 36.6663 27.5173 37.2477L32.7896 40.1235L38.0612 37.2477C39.1276 36.6663 39.7896 35.5509 39.7896 34.3367V23.8046L32.8033 21.8999L25.7896 23.9914Z" fill="white"/>
<path d="M32.0528 33.6465C31.8203 33.6465 31.5872 33.5738 31.3893 33.4255L28.4419 31.215C27.9541 30.8488 27.8548 30.1558 28.221 29.6676C28.588 29.179 29.2803 29.0811 29.7688 29.4463L31.9491 31.0819L35.6924 27.338C36.1241 26.9062 36.8235 26.9062 37.2553 27.338C37.687 27.7694 37.687 28.4691 37.2553 28.9009L32.8342 33.3227C32.6205 33.5371 32.337 33.6465 32.0528 33.6465Z" fill="white"/>
</svg>
