<svg width="48" height="48" viewBox="0 0 48 48" fill="none" xmlns="http://www.w3.org/2000/svg">
<path d="M26.1759 45.4181H3.83693C1.78385 45.4181 0.11377 43.748 0.11377 41.6949V7.02785C0.11377 4.97477 1.78385 3.30469 3.83693 3.30469H16.2224C16.9076 3.30469 17.4635 3.86058 17.4635 4.54574C17.4635 5.2309 16.9076 5.78679 16.2224 5.78679H3.83693C3.15257 5.78679 2.59587 6.34349 2.59587 7.02785V41.6949C2.59587 42.3793 3.15257 42.936 3.83693 42.936H26.1759C26.861 42.936 27.4169 43.4919 27.4169 44.177C27.4169 44.8622 26.861 45.4181 26.1759 45.4181Z" fill="white"/>
<path d="M36.9316 23.0791C36.2465 23.0791 35.6906 22.5232 35.6906 21.8381V7.02785C35.6906 6.34349 35.1339 5.78679 34.4495 5.78679H22.0641C21.3789 5.78679 20.823 5.2309 20.823 4.54574C20.823 3.86058 21.3789 3.30469 22.0641 3.30469H34.4495C36.5026 3.30469 38.1727 4.97477 38.1727 7.02785V21.8381C38.1727 22.5232 37.6168 23.0791 36.9316 23.0791Z" fill="white"/>
<path d="M14.5926 23.9067C13.9075 23.9067 13.3516 23.3509 13.3516 22.6657C13.3516 21.9805 13.9075 21.4246 14.5926 21.4246L31.9674 21.4238C32.6525 21.4238 33.2084 21.9797 33.2084 22.6649C33.2084 23.35 32.6525 23.9059 31.9674 23.9059L14.5926 23.9067Z" fill="white"/>
<path d="M7.55975 25.1407C7.19859 25.1407 6.8552 24.9831 6.62008 24.71L5.37902 23.2702C4.9314 22.7507 4.98958 21.9669 5.5083 21.5201C6.02783 21.0717 6.81157 21.1307 7.25838 21.6494L7.54602 21.9831L8.67719 20.6338C9.11673 20.1094 9.89885 20.0399 10.4256 20.4803C10.9508 20.9206 11.0195 21.7027 10.5792 22.2287L8.51075 24.6971C8.27724 24.9758 7.93223 25.1382 7.56865 25.1407H7.55975Z" fill="white"/>
<path d="M14.5926 30.6377C13.9075 30.6377 13.3516 30.0826 13.3516 29.3966C13.3516 28.7115 13.9075 28.1556 14.5926 28.1556L21.2116 28.1548C21.8967 28.1548 22.4526 28.7107 22.4526 29.3958C22.4526 30.081 21.8967 30.6369 21.2116 30.6369L14.5926 30.6377Z" fill="white"/>
<path d="M7.55989 31.8717C7.19873 31.8717 6.85534 31.7141 6.6194 31.441L5.37835 30.0004C4.93154 29.4808 4.98971 28.6971 5.50844 28.2495C6.02958 27.8011 6.81171 27.8617 7.25932 28.3796L7.54697 28.7141L8.67732 27.3648C9.11686 26.8388 9.90061 26.7701 10.425 27.2104C10.951 27.65 11.0196 28.4329 10.5793 28.9581L8.51088 31.4273C8.27737 31.7068 7.93236 31.8692 7.56878 31.8717L7.55989 31.8717Z" fill="white"/>
<path d="M21.2116 37.3683H14.5926C13.9075 37.3683 13.3516 36.8124 13.3516 36.1273C13.3516 35.4421 13.9075 34.8862 14.5926 34.8862H21.2116C21.8967 34.8862 22.4526 35.4421 22.4526 36.1273C22.4526 36.8124 21.8967 37.3683 21.2116 37.3683Z" fill="white"/>
<path d="M7.55989 38.6026C7.19873 38.6026 6.85534 38.4451 6.6194 38.172L5.37835 36.7313C4.93154 36.2118 4.98971 35.4281 5.50844 34.9804C6.02958 34.532 6.81171 34.5926 7.25932 35.1105L7.54697 35.445L8.67732 34.0957C9.11686 33.5697 9.90061 33.501 10.425 33.9414C10.951 34.3809 11.0196 35.1639 10.5793 35.689L8.51088 38.1582C8.27737 38.4378 7.93236 38.6002 7.56878 38.6026L7.55989 38.6026Z" fill="white"/>
<path d="M25.3236 18.9423H12.9631C11.6081 18.9423 10.3938 18.2418 9.71667 17.067C9.03878 15.8938 9.03878 14.492 9.71667 13.3188L15.8969 2.61474C16.5748 1.44074 17.7884 0.740234 19.1433 0.740234C20.4983 0.740234 21.7119 1.44075 22.3898 2.61474L28.57 13.3188C29.2479 14.492 29.2479 15.8938 28.57 17.067C27.8929 18.2418 26.6785 18.9423 25.3236 18.9423ZM18.0461 3.85578L11.8659 14.5599C11.5362 15.1311 11.756 15.6361 11.8659 15.8268C11.9758 16.0175 12.303 16.4602 12.9631 16.4602H25.3235C25.9837 16.4602 26.3109 16.0174 26.4208 15.8268C26.5307 15.6361 26.7504 15.1311 26.4208 14.5599L20.2406 3.85578C19.9101 3.28454 19.3631 3.22233 19.1433 3.22233C18.9236 3.22233 18.3766 3.28455 18.0461 3.85578Z" fill="white"/>
<path d="M19.1436 11.1503C18.4585 11.1503 17.9026 10.5944 17.9026 9.90928V7.16781C17.9026 6.48265 18.4585 5.92676 19.1436 5.92676C19.8288 5.92676 20.3847 6.48265 20.3847 7.16781V9.90928C20.3847 10.5944 19.8288 11.1503 19.1436 11.1503Z" fill="white"/>
<path d="M19.1436 15.288C18.4585 15.288 17.9026 14.7322 17.9026 14.047V13.6341C17.9026 12.949 18.4585 12.3931 19.1436 12.3931C19.8288 12.3931 20.3847 12.949 20.3847 13.6341V14.047C20.3847 14.7322 19.8288 15.288 19.1436 15.288Z" fill="white"/>
<path d="M43.5506 47.9005H28.658C26.6049 47.9005 24.9348 46.2304 24.9348 44.1773V29.2847C24.9348 27.2316 26.6049 25.5615 28.658 25.5615H43.5506C45.6037 25.5615 47.2738 27.2316 47.2738 29.2847V44.1773C47.2738 46.2304 45.6037 47.9005 43.5506 47.9005ZM28.658 28.0436C27.9736 28.0436 27.4169 28.6003 27.4169 29.2847V44.1773C27.4169 44.8617 27.9736 45.4184 28.658 45.4184H43.5506C44.235 45.4184 44.7917 44.8617 44.7917 44.1773V29.2847C44.7917 28.6003 44.235 28.0436 43.5506 28.0436H28.658Z" fill="white"/>
<path d="M35.2782 41.494C32.1966 41.494 29.6895 38.9868 29.6895 35.9052C29.6895 32.8236 32.1966 30.3164 35.2782 30.3164C38.3599 30.3164 40.867 32.8236 40.867 35.9052C40.867 38.9868 38.3599 41.494 35.2782 41.494ZM35.2782 32.7985C33.5653 32.7985 32.1716 34.1923 32.1716 35.9052C32.1716 37.6181 33.5653 39.0118 35.2782 39.0118C36.9911 39.0118 38.3849 37.6181 38.3849 35.9052C38.3849 34.1923 36.9911 32.7985 35.2782 32.7985Z" fill="white"/>
<path d="M41.2773 43.1453C40.9597 43.1453 40.6422 43.0241 40.3998 42.7817L37.4749 39.8568C36.9901 39.372 36.9901 38.5866 37.4749 38.1019C37.9597 37.6171 38.7451 37.6171 39.2298 38.1019L42.1547 41.0267C42.6395 41.5115 42.6395 42.2969 42.1547 42.7817C41.9123 43.0241 41.5948 43.1453 41.2773 43.1453Z" fill="white"/>
</svg>
