<svg width="46" height="46" viewBox="0 0 46 46" fill="none" xmlns="http://www.w3.org/2000/svg">
<path d="M11.6704 29.0376L18.2168 20.5293L25.684 26.395L32.0902 18.127" stroke="white" stroke-width="3" stroke-linecap="round" stroke-linejoin="round"/>
<path d="M39.5571 10.0981C41.879 10.0981 43.7612 8.21588 43.7612 5.89403C43.7612 3.57217 41.879 1.68994 39.5571 1.68994C37.2353 1.68994 35.353 3.57217 35.353 5.89403C35.353 8.21588 37.2353 10.0981 39.5571 10.0981Z" stroke="white" stroke-width="3" stroke-linecap="round" stroke-linejoin="round"/>
<path d="M28.4667 3.53076H12.5712C5.98484 3.53076 1.90088 8.19529 1.90088 14.7817V32.4589C1.90088 39.0453 5.90477 43.6898 12.5712 43.6898H31.3895C37.9759 43.6898 42.0599 39.0453 42.0599 32.4589V17.0639" stroke="white" stroke-width="3" stroke-linecap="round" stroke-linejoin="round"/>
</svg>
