<svg width="42" height="42" viewBox="0 0 42 42" fill="none" xmlns="http://www.w3.org/2000/svg">
<path d="M18.7895 37.5787C8.42907 37.5787 0 29.1496 0 18.7892C0 8.42882 8.42907 -0.000244141 18.7895 -0.000244141C28.2482 -0.000244141 36.2636 7.06811 37.4336 16.442C37.5091 17.0471 37.0796 17.5998 36.4737 17.6753C35.8808 17.7509 35.3159 17.3213 35.2403 16.7154C34.2077 8.4461 27.1358 2.21028 18.7895 2.21028C9.64767 2.21028 2.21053 9.64778 2.21053 18.7892C2.21053 27.9307 9.64767 35.3682 18.7895 35.3682C20.692 35.3682 22.5507 35.0501 24.3136 34.4227C24.8871 34.2161 25.5204 34.5184 25.7254 35.0933C25.9305 35.6682 25.6297 36.3007 25.0548 36.5051C23.0529 37.2175 20.945 37.5787 18.7895 37.5787Z" fill="white"/>
<path d="M18.7896 37.5787C18.179 37.5787 17.6843 37.0836 17.6843 36.4734V1.10502C17.6843 0.494825 18.179 -0.000244141 18.7896 -0.000244141C19.4001 -0.000244141 19.8949 0.494825 19.8949 1.10502V36.4734C19.8949 37.0836 19.4001 37.5787 18.7896 37.5787Z" fill="white"/>
<path d="M23.2105 26.526H2.40189C1.79134 26.526 1.29663 26.0309 1.29663 25.4207C1.29663 24.8105 1.79134 24.3154 2.40189 24.3154H23.2105C23.8207 24.3154 24.3157 24.8105 24.3157 25.4207C24.3157 26.0309 23.8207 26.526 23.2105 26.526Z" fill="white"/>
<path d="M35.177 13.263H2.40189C1.79134 13.263 1.29663 12.7679 1.29663 12.1578C1.29663 11.5476 1.79134 11.0525 2.40189 11.0525H35.177C35.7872 11.0525 36.2822 11.5476 36.2822 12.1578C36.2822 12.7679 35.7872 13.263 35.177 13.263Z" fill="white"/>
<path d="M18.787 37.5787C13.1905 37.5787 8.80688 29.3252 8.80688 18.7892C8.80688 8.25325 13.1905 -0.000244141 18.787 -0.000244141C24.0503 -0.000244141 28.3274 7.4243 28.7362 17.2695C28.7613 17.8797 28.2871 18.3949 27.6777 18.4201C27.0416 18.4438 26.553 17.9711 26.5271 17.3616C26.181 9.00736 22.7083 2.21028 18.787 2.21028C14.5753 2.21028 11.0174 9.80249 11.0174 18.7892C11.0174 27.776 14.5753 35.3682 18.787 35.3682C19.3976 35.3682 19.8923 35.8633 19.8923 36.4734C19.8923 37.0836 19.3975 37.5787 18.787 37.5787Z" fill="white"/>
<path d="M38.6841 41.9998H26.8946C25.0662 41.9998 23.5789 40.5125 23.5789 38.684V29.8419C23.5789 28.0135 25.0662 26.5261 26.8946 26.5261H38.6841C40.5126 26.5261 41.9999 28.0135 41.9999 29.8419V38.684C41.9999 40.5125 40.5126 41.9998 38.6841 41.9998ZM26.8946 28.7366C26.2852 28.7366 25.7894 29.2324 25.7894 29.8419V38.684C25.7894 39.2935 26.2852 39.7893 26.8946 39.7893H38.6841C39.2936 39.7893 39.7894 39.2935 39.7894 38.684V29.8419C39.7894 29.2324 39.2936 28.7366 38.6841 28.7366H26.8946Z" fill="white"/>
<path d="M32.7894 35.3073C34.0952 35.3073 35.1537 34.2487 35.1537 32.943C35.1537 31.6372 34.0952 30.5786 32.7894 30.5786C31.4836 30.5786 30.425 31.6372 30.425 32.943C30.425 34.2487 31.4836 35.3073 32.7894 35.3073Z" fill="white"/>
<path d="M32.7896 38.194C32.1794 38.194 31.6843 37.6989 31.6843 37.0887V34.263C31.6843 33.6528 32.1794 33.1577 32.7896 33.1577C33.3998 33.1577 33.8949 33.6528 33.8949 34.263V37.0887C33.8949 37.6989 33.3998 38.194 32.7896 38.194Z" fill="white"/>
<path d="M37.579 28.7367C36.9688 28.7367 36.4737 28.2416 36.4737 27.6314V25.0525C36.4737 23.0211 34.8209 21.3682 32.7895 21.3682C31.808 21.3682 30.8805 21.7518 30.1789 22.4483C29.4888 23.1434 29.1053 24.071 29.1053 25.0525V27.6314C29.1053 28.2416 28.6102 28.7367 28 28.7367C27.3898 28.7367 26.8948 28.2416 26.8948 27.6314V25.0525C26.8948 23.4838 27.5057 22.0036 28.6153 20.8847C29.7407 19.7686 31.2208 19.1577 32.7895 19.1577C36.0398 19.1577 38.6842 21.8021 38.6842 25.0525V27.6314C38.6842 28.2416 38.1892 28.7367 37.579 28.7367Z" fill="white"/>
</svg>
