<svg width="42" height="42" viewBox="0 0 42 42" fill="none" xmlns="http://www.w3.org/2000/svg">
<path d="M38.6843 33.8946H33.5264C32.9162 33.8946 32.4211 33.3995 32.4211 32.7893C32.4211 32.1791 32.9162 31.684 33.5264 31.684H38.6843C39.2938 31.684 39.7896 31.1883 39.7896 30.5788V3.31555C39.7896 2.70607 39.2938 2.21029 38.6843 2.21029H3.3158C2.70632 2.21029 2.21053 2.70607 2.21053 3.31555V30.5788C2.21053 31.1883 2.70632 31.684 3.3158 31.684H12.8948C13.505 31.684 14 32.1791 14 32.7893C14 33.3995 13.505 33.8946 12.8948 33.8946H3.3158C1.48736 33.8946 0 32.4072 0 30.5788V3.31555C0 1.48711 1.48736 -0.000244141 3.3158 -0.000244141H38.6843C40.5127 -0.000244141 42.0001 1.48711 42.0001 3.31555V30.5788C42.0001 32.4072 40.5127 33.8946 38.6843 33.8946Z" fill="white"/>
<path d="M40.8949 11.0523H26.8948C26.2846 11.0523 25.7896 10.5573 25.7896 9.94706C25.7896 9.33687 26.2846 8.8418 26.8948 8.8418H40.8949C41.505 8.8418 42.0001 9.33687 42.0001 9.94706C42.0001 10.5573 41.505 11.0523 40.8949 11.0523Z" fill="white"/>
<path d="M15.1053 11.0523H1.10527C0.495071 11.0523 0 10.5573 0 9.94706C0 9.33687 0.495071 8.8418 1.10527 8.8418H15.1053C15.7155 8.8418 16.2106 9.33687 16.2106 9.94706C16.2106 10.5573 15.7155 11.0523 15.1053 11.0523Z" fill="white"/>
<path d="M36.4738 6.63143H14.3677C13.7575 6.63143 13.2625 6.13636 13.2625 5.52616C13.2625 4.91597 13.7575 4.4209 14.3677 4.4209H36.4738C37.084 4.4209 37.579 4.91597 37.579 5.52616C37.579 6.13636 37.084 6.63143 36.4738 6.63143Z" fill="white"/>
<path d="M6.26325 6.63143H5.52641C4.91621 6.63143 4.42114 6.13636 4.42114 5.52616C4.42114 4.91597 4.91621 4.4209 5.52641 4.4209H6.26325C6.87345 4.4209 7.36852 4.91597 7.36852 5.52616C7.36852 6.13636 6.87345 6.63143 6.26325 6.63143Z" fill="white"/>
<path d="M10.6842 6.63143H9.94731C9.33711 6.63143 8.84204 6.13636 8.84204 5.52616C8.84204 4.91597 9.33711 4.4209 9.94731 4.4209H10.6842C11.2943 4.4209 11.7894 4.91597 11.7894 5.52616C11.7894 6.13636 11.2943 6.63143 10.6842 6.63143Z" fill="white"/>
<path d="M15.6356 22.9671C15.1722 22.9671 14.7411 22.6742 14.5872 22.2108L12.8343 16.9471H9.21049C8.6003 16.9471 8.10522 16.452 8.10522 15.8418C8.10522 15.2316 8.6003 14.7366 9.21049 14.7366H13.6316C14.1072 14.7366 14.5296 15.041 14.68 15.4928L16.684 21.5128C16.8768 22.0921 16.5638 22.7174 15.9846 22.9102C15.8687 22.9491 15.7514 22.9671 15.6356 22.9671Z" fill="white"/>
<path d="M7.00012 19.1577C5.17168 19.1577 3.68433 17.6704 3.68433 15.8419C3.68433 14.0135 5.17168 12.5261 7.00012 12.5261C8.82857 12.5261 10.3159 14.0135 10.3159 15.8419C10.3159 17.6704 8.82857 19.1577 7.00012 19.1577ZM7.00012 14.7367C6.39064 14.7367 5.89486 15.2324 5.89486 15.8419C5.89486 16.4514 6.39064 16.9472 7.00012 16.9472C7.6096 16.9472 8.10539 16.4514 8.10539 15.8419C8.10539 15.2324 7.6096 14.7367 7.00012 14.7367Z" fill="white"/>
<path d="M21.0001 15.4734C19.1717 15.4734 17.6843 13.986 17.6843 12.1576C17.6843 10.3292 19.1717 8.8418 21.0001 8.8418C22.8286 8.8418 24.3159 10.3292 24.3159 12.1576C24.3159 13.986 22.8286 15.4734 21.0001 15.4734ZM21.0001 11.0523C20.3906 11.0523 19.8949 11.5481 19.8949 12.1576C19.8949 12.7671 20.3906 13.2629 21.0001 13.2629C21.6096 13.2629 22.1054 12.7671 22.1054 12.1576C22.1054 11.5481 21.6096 11.0523 21.0001 11.0523Z" fill="white"/>
<path d="M7.00012 28.7366C5.17168 28.7366 3.68433 27.2492 3.68433 25.4208C3.68433 23.5923 5.17168 22.105 7.00012 22.105C8.82857 22.105 10.3159 23.5923 10.3159 25.4208C10.3159 27.2492 8.82857 28.7366 7.00012 28.7366ZM7.00012 24.3155C6.39064 24.3155 5.89486 24.8113 5.89486 25.4208C5.89486 26.0303 6.39064 26.526 7.00012 26.526C7.6096 26.526 8.10539 26.0303 8.10539 25.4208C8.10539 24.8113 7.6096 24.3155 7.00012 24.3155Z" fill="white"/>
<path d="M12.8947 26.5262H9.21049C8.6003 26.5262 8.10522 26.0311 8.10522 25.4209C8.10522 24.8107 8.6003 24.3157 9.21049 24.3157H12.8947C13.5049 24.3157 14 24.8107 14 25.4209C14 26.0311 13.5049 26.5262 12.8947 26.5262Z" fill="white"/>
<path d="M26.4009 22.8419C26.285 22.8419 26.167 22.8239 26.0511 22.785C25.4719 22.5914 25.1589 21.9654 25.3524 21.3869L27.3198 15.4921C27.4701 15.041 27.8925 14.7366 28.3682 14.7366H32.7892C33.3994 14.7366 33.8945 15.2316 33.8945 15.8418C33.8945 16.452 33.3994 16.9471 32.7892 16.9471H29.1647L27.4493 22.0863C27.2946 22.5497 26.8635 22.8419 26.4009 22.8419Z" fill="white"/>
<path d="M35.0001 19.1577C33.1717 19.1577 31.6843 17.6704 31.6843 15.8419C31.6843 14.0135 33.1717 12.5261 35.0001 12.5261C36.8286 12.5261 38.3159 14.0135 38.3159 15.8419C38.3159 17.6704 36.8286 19.1577 35.0001 19.1577ZM35.0001 14.7367C34.3906 14.7367 33.8949 15.2324 33.8949 15.8419C33.8949 16.4514 34.3906 16.9472 35.0001 16.9472C35.6096 16.9472 36.1054 16.4514 36.1054 15.8419C36.1054 15.2324 35.6096 14.7367 35.0001 14.7367Z" fill="white"/>
<path d="M35.0001 28.7366C33.1717 28.7366 31.6843 27.2492 31.6843 25.4208C31.6843 23.5923 33.1717 22.105 35.0001 22.105C36.8286 22.105 38.3159 23.5923 38.3159 25.4208C38.3159 27.2492 36.8286 28.7366 35.0001 28.7366ZM35.0001 24.3155C34.3906 24.3155 33.8949 24.8113 33.8949 25.4208C33.8949 26.0303 34.3906 26.526 35.0001 26.526C35.6096 26.526 36.1054 26.0303 36.1054 25.4208C36.1054 24.8113 35.6096 24.3155 35.0001 24.3155Z" fill="white"/>
<path d="M32.7895 26.5262H29.1053C28.4951 26.5262 28 26.0311 28 25.4209C28 24.8107 28.4951 24.3157 29.1053 24.3157H32.7895C33.3997 24.3157 33.8948 24.8107 33.8948 25.4209C33.8948 26.0311 33.3997 26.5262 32.7895 26.5262Z" fill="white"/>
<path d="M21 21.3682C20.3898 21.3682 19.8948 20.8732 19.8948 20.263V14.3682C19.8948 13.758 20.3898 13.2629 21 13.2629C21.6102 13.2629 22.1053 13.758 22.1053 14.3682V20.263C22.1053 20.8732 21.6102 21.3682 21 21.3682Z" fill="white"/>
<path d="M21.0006 41.9996C20.8185 41.9996 20.6365 41.9543 20.4717 41.8644L14.6705 38.7004C12.8939 37.7311 11.79 35.8725 11.79 33.849V22.6798C11.79 22.1912 12.111 21.7602 12.5794 21.6206L20.6847 19.2035C20.8826 19.1445 21.0934 19.1417 21.2913 19.1963L29.3966 21.4062C29.8773 21.5371 30.2111 21.9739 30.2111 22.4726V33.849C30.2111 35.8725 29.1073 37.7311 27.3314 38.7004L21.5295 41.8644C21.3647 41.9543 21.1826 41.9996 21.0006 41.9996ZM14.0006 23.5037V33.849C14.0006 35.063 14.6626 36.1783 15.729 36.7604L21.0006 39.6351L26.2729 36.7604C27.3386 36.1783 28.0006 35.063 28.0006 33.849V23.3166L21.0143 21.4119L14.0006 23.5037Z" fill="white"/>
<path d="M20.264 33.1584C20.0315 33.1584 19.7984 33.0858 19.6005 32.9375L16.6531 30.727C16.1653 30.3607 16.066 29.6678 16.4322 29.1792C16.7992 28.692 17.4914 28.5927 17.98 28.9583L20.1603 30.5939L23.9036 26.8499C24.3353 26.4182 25.0347 26.4182 25.4665 26.8499C25.8982 27.2817 25.8982 27.9811 25.4665 28.4128L21.0454 32.8346C20.831 33.0491 20.5482 33.1584 20.264 33.1584Z" fill="white"/>
</svg>
