<svg width="42" height="42" viewBox="0 0 42 42" fill="none" xmlns="http://www.w3.org/2000/svg">
<path d="M24.6842 35.3682H5.52632C2.47893 35.3682 0 32.8892 0 29.8419V5.52607C0 2.47868 2.47893 -0.000244141 5.52632 -0.000244141H32.0526C35.1 -0.000244141 37.5789 2.47868 37.5789 5.52607V17.3155C37.5789 17.9261 37.0842 18.4208 36.4737 18.4208C35.8631 18.4208 35.3684 17.9261 35.3684 17.3155V5.52607C35.3684 3.69763 33.8811 2.21028 32.0526 2.21028H5.52632C3.69788 2.21028 2.21053 3.69763 2.21053 5.52607V29.8419C2.21053 31.6703 3.69788 33.1576 5.52632 33.1576H24.6842C25.2948 33.1576 25.7895 33.6524 25.7895 34.2629C25.7895 34.8735 25.2948 35.3682 24.6842 35.3682Z" fill="white"/>
<path d="M18.7895 19.8946C14.3202 19.8946 10.6842 16.2586 10.6842 11.7893C10.6842 7.32008 14.3202 3.68408 18.7895 3.68408C23.2587 3.68408 26.8947 7.32008 26.8947 11.7893C26.8947 16.2586 23.2587 19.8946 18.7895 19.8946ZM18.7895 5.89461C15.5392 5.89461 12.8947 8.53904 12.8947 11.7893C12.8947 15.0397 15.5392 17.6841 18.7895 17.6841C22.0398 17.6841 24.6842 15.0397 24.6842 11.7893C24.6842 8.53904 22.0398 5.89461 18.7895 5.89461Z" fill="white"/>
<path d="M18.7894 14.7366C16.7581 14.7366 15.1052 13.0837 15.1052 11.0524C15.1052 9.02102 16.7581 7.36816 18.7894 7.36816C20.8208 7.36816 22.4736 9.02102 22.4736 11.0524C22.4736 13.0837 20.8208 14.7366 18.7894 14.7366ZM18.7894 9.57869C17.9767 9.57869 17.3158 10.2396 17.3158 11.0524C17.3158 11.8651 17.9767 12.5261 18.7894 12.5261C19.6022 12.5261 20.2631 11.8651 20.2631 11.0524C20.2631 10.2396 19.6022 9.57869 18.7894 9.57869Z" fill="white"/>
<path d="M24.2129 17.3156C23.8916 17.3156 23.5728 17.1764 23.3544 16.9076C22.233 15.5278 20.569 14.7366 18.7891 14.7366C17.0092 14.7366 15.3452 15.5278 14.2238 16.9076C13.8392 17.3814 13.1437 17.4534 12.6688 17.0681C12.1953 16.6831 12.1233 15.9869 12.5083 15.5131C14.0514 13.6148 16.3408 12.5261 18.7891 12.5261C21.2375 12.5261 23.5268 13.6148 25.0699 15.5131C25.4549 15.9869 25.3829 16.6831 24.9094 17.0681C24.7044 17.2346 24.4579 17.3156 24.2129 17.3156Z" fill="white"/>
<path d="M24.6842 30.9471H5.52628C4.91573 30.9471 4.42102 30.4524 4.42102 29.8418V22.4734C4.42102 21.8629 4.91573 21.3682 5.52628 21.3682H24.6842C25.2947 21.3682 25.7894 21.8629 25.7894 22.4734C25.7894 23.084 25.2947 23.5787 24.6842 23.5787H6.63155V28.7366H24.6842C25.2947 28.7366 25.7894 29.2313 25.7894 29.8418C25.7894 30.4524 25.2947 30.9471 24.6842 30.9471Z" fill="white"/>
<path d="M18.6574 27.2911C19.2835 27.2911 19.791 26.7836 19.791 26.1575C19.791 25.5315 19.2835 25.0239 18.6574 25.0239C18.0313 25.0239 17.5238 25.5315 17.5238 26.1575C17.5238 26.7836 18.0313 27.2911 18.6574 27.2911Z" fill="white"/>
<path d="M14.5004 27.2911C15.1265 27.2911 15.634 26.7836 15.634 26.1575C15.634 25.5315 15.1265 25.0239 14.5004 25.0239C13.8744 25.0239 13.3668 25.5315 13.3668 26.1575C13.3668 26.7836 13.8744 27.2911 14.5004 27.2911Z" fill="white"/>
<path d="M10.3442 27.2911C10.9702 27.2911 11.4778 26.7836 11.4778 26.1575C11.4778 25.5315 10.9702 25.0239 10.3442 25.0239C9.7181 25.0239 9.21057 25.5315 9.21057 26.1575C9.21057 26.7836 9.7181 27.2911 10.3442 27.2911Z" fill="white"/>
<path d="M22.8137 27.2911C23.4397 27.2911 23.9473 26.7836 23.9473 26.1575C23.9473 25.5315 23.4397 25.0239 22.8137 25.0239C22.1876 25.0239 21.6801 25.5315 21.6801 26.1575C21.6801 26.7836 22.1876 27.2911 22.8137 27.2911Z" fill="white"/>
<path d="M38.6841 42.0001H26.8946C25.0662 42.0001 23.5789 40.5127 23.5789 38.6843V29.8422C23.5789 28.0137 25.0662 26.5264 26.8946 26.5264H38.6841C40.5126 26.5264 41.9999 28.0137 41.9999 29.8422V38.6843C41.9999 40.5127 40.5126 42.0001 38.6841 42.0001ZM26.8946 28.7369C26.2852 28.7369 25.7894 29.2327 25.7894 29.8422V38.6843C25.7894 39.2937 26.2852 39.7895 26.8946 39.7895H38.6841C39.2936 39.7895 39.7894 39.2937 39.7894 38.6843V29.8422C39.7894 29.2327 39.2936 28.7369 38.6841 28.7369H26.8946Z" fill="white"/>
<path d="M37.5789 28.7369C36.9683 28.7369 36.4736 28.2422 36.4736 27.6316V25.0527C36.4736 23.0213 34.8207 21.3685 32.7894 21.3685C31.8075 21.3685 30.8804 21.752 30.1781 22.4482C29.4887 23.1437 29.1052 24.0708 29.1052 25.0527V27.6316C29.1052 28.2422 28.6105 28.7369 27.9999 28.7369C27.3894 28.7369 26.8947 28.2422 26.8947 27.6316V25.0527C26.8947 23.484 27.5056 22.0042 28.6148 20.8849C29.7409 19.7689 31.2207 19.158 32.7894 19.158C36.0397 19.158 38.6841 21.8024 38.6841 25.0527V27.6316C38.6841 28.2422 38.1894 28.7369 37.5789 28.7369Z" fill="white"/>
<path d="M32.7891 35.3075C34.0949 35.3075 35.1535 34.249 35.1535 32.9432C35.1535 31.6374 34.0949 30.5789 32.7891 30.5789C31.4834 30.5789 30.4248 31.6374 30.4248 32.9432C30.4248 34.249 31.4834 35.3075 32.7891 35.3075Z" fill="white"/>
<path d="M32.7893 38.1942C32.1788 38.1942 31.6841 37.6995 31.6841 37.089V34.2632C31.6841 33.6527 32.1788 33.158 32.7893 33.158C33.3999 33.158 33.8946 33.6527 33.8946 34.2632V37.089C33.8946 37.6995 33.3999 38.1942 32.7893 38.1942Z" fill="white"/>
</svg>
