<svg width="42" height="42" viewBox="0 0 42 42" fill="none" xmlns="http://www.w3.org/2000/svg">
<path d="M24.6842 35.3682H5.52632C2.47893 35.3682 0 32.8892 0 29.8419V5.52607C0 2.47868 2.47893 -0.000244141 5.52632 -0.000244141H29.1053C32.1527 -0.000244141 34.6316 2.47868 34.6316 5.52607V17.3155C34.6316 17.9261 34.1369 18.4208 33.5263 18.4208C32.9158 18.4208 32.4211 17.9261 32.4211 17.3155V5.52607C32.4211 3.69763 30.9337 2.21028 29.1053 2.21028H5.52632C3.69788 2.21028 2.21053 3.69763 2.21053 5.52607V29.8419C2.21053 31.6703 3.69788 33.1576 5.52632 33.1576H24.6842C25.2948 33.1576 25.7895 33.6524 25.7895 34.2629C25.7895 34.8735 25.2948 35.3682 24.6842 35.3682Z" fill="white"/>
<path d="M6.26322 12.5261C5.65267 12.5261 5.15796 12.0314 5.15796 11.4209V6.26298C5.15796 5.65242 5.65267 5.15771 6.26322 5.15771C6.87378 5.15771 7.36849 5.65242 7.36849 6.26298V11.4209C7.36849 12.0314 6.87378 12.5261 6.26322 12.5261Z" fill="white"/>
<path d="M6.26322 21.3682C5.65267 21.3682 5.15796 20.8735 5.15796 20.2629V15.105C5.15796 14.4945 5.65267 13.9998 6.26322 13.9998C6.87378 13.9998 7.36849 14.4945 7.36849 15.105V20.2629C7.36849 20.8735 6.87378 21.3682 6.26322 21.3682Z" fill="white"/>
<path d="M6.26322 30.2102C5.65267 30.2102 5.15796 29.7155 5.15796 29.105V23.9471C5.15796 23.3365 5.65267 22.8418 6.26322 22.8418C6.87378 22.8418 7.36849 23.3365 7.36849 23.9471V29.105C7.36849 29.7155 6.87378 30.2102 6.26322 30.2102Z" fill="white"/>
<path d="M24.6841 25.7892C24.0736 25.7892 23.5789 25.2945 23.5789 24.6839V23.9471C23.5789 23.3365 24.0736 22.8418 24.6841 22.8418C25.2947 22.8418 25.7894 23.3365 25.7894 23.9471V24.6839C25.7894 25.2945 25.2947 25.7892 24.6841 25.7892Z" fill="white"/>
<path d="M9.9473 21.3682C9.33675 21.3682 8.84204 20.8735 8.84204 20.2629V15.105C8.84204 14.4945 9.33675 13.9998 9.9473 13.9998C10.5579 13.9998 11.0526 14.4945 11.0526 15.105V20.2629C11.0526 20.8735 10.5579 21.3682 9.9473 21.3682Z" fill="white"/>
<path d="M13.6316 21.3682C13.0211 21.3682 12.5264 20.8735 12.5264 20.2629V15.105C12.5264 14.4945 13.0211 13.9998 13.6316 13.9998C14.2422 13.9998 14.7369 14.4945 14.7369 15.105V20.2629C14.7369 20.8735 14.2422 21.3682 13.6316 21.3682Z" fill="white"/>
<path d="M24.6841 21.3682C24.0736 21.3682 23.5789 20.8735 23.5789 20.2629V15.105C23.5789 14.4945 24.0736 13.9998 24.6841 13.9998C25.2947 13.9998 25.7894 14.4945 25.7894 15.105V20.2629C25.7894 20.8735 25.2947 21.3682 24.6841 21.3682Z" fill="white"/>
<path d="M28.3684 19.8945C27.7579 19.8945 27.2632 19.3998 27.2632 18.7892V15.105C27.2632 14.4945 27.7579 13.9998 28.3684 13.9998C28.979 13.9998 29.4737 14.4945 29.4737 15.105V18.7892C29.4737 19.3998 28.979 19.8945 28.3684 19.8945Z" fill="white"/>
<path d="M17.3157 12.5261C16.7052 12.5261 16.2104 12.0314 16.2104 11.4209V6.26298C16.2104 5.65242 16.7052 5.15771 17.3157 5.15771C17.9263 5.15771 18.421 5.65242 18.421 6.26298V11.4209C18.421 12.0314 17.9263 12.5261 17.3157 12.5261Z" fill="white"/>
<path d="M21 12.5261C20.3895 12.5261 19.8948 12.0314 19.8948 11.4209V6.26298C19.8948 5.65242 20.3895 5.15771 21 5.15771C21.6106 5.15771 22.1053 5.65242 22.1053 6.26298V11.4209C22.1053 12.0314 21.6106 12.5261 21 12.5261Z" fill="white"/>
<path d="M13.6315 12.5261H9.9473C9.33675 12.5261 8.84204 12.0314 8.84204 11.4209V6.26298C8.84204 5.65242 9.33675 5.15771 9.9473 5.15771H13.6315C14.2421 5.15771 14.7368 5.65242 14.7368 6.26298V11.4209C14.7368 12.0314 14.2421 12.5261 13.6315 12.5261ZM11.0526 10.3156H12.5263V7.36824H11.0526V10.3156Z" fill="white"/>
<path d="M20.9999 21.3682H17.3157C16.7052 21.3682 16.2104 20.8735 16.2104 20.2629V15.105C16.2104 14.4945 16.7052 13.9998 17.3157 13.9998H20.9999C21.6105 13.9998 22.1052 14.4945 22.1052 15.105V20.2629C22.1052 20.8735 21.6105 21.3682 20.9999 21.3682ZM18.421 19.1577H19.8947V16.2103H18.421V19.1577Z" fill="white"/>
<path d="M13.6315 30.2102H9.9473C9.33675 30.2102 8.84204 29.7155 8.84204 29.105V23.9471C8.84204 23.3365 9.33675 22.8418 9.9473 22.8418H13.6315C14.2421 22.8418 14.7368 23.3365 14.7368 23.9471V29.105C14.7368 29.7155 14.2421 30.2102 13.6315 30.2102ZM11.0526 27.9997H12.5263V25.0523H11.0526V27.9997Z" fill="white"/>
<path d="M20.9999 30.2102H17.3157C16.7052 30.2102 16.2104 29.7155 16.2104 29.105V23.9471C16.2104 23.3365 16.7052 22.8418 17.3157 22.8418H20.9999C21.6105 22.8418 22.1052 23.3365 22.1052 23.9471V29.105C22.1052 29.7155 21.6105 30.2102 20.9999 30.2102ZM18.421 27.9997H19.8947V25.0523H18.421V27.9997Z" fill="white"/>
<path d="M28.3683 12.5261H24.6841C24.0736 12.5261 23.5789 12.0314 23.5789 11.4209V6.26298C23.5789 5.65242 24.0736 5.15771 24.6841 5.15771H28.3683C28.9789 5.15771 29.4736 5.65242 29.4736 6.26298V11.4209C29.4736 12.0314 28.9789 12.5261 28.3683 12.5261ZM25.7894 10.3156H27.2631V7.36824H25.7894V10.3156Z" fill="white"/>
<path d="M38.6839 42.0001H26.8944C25.066 42.0001 23.5786 40.5127 23.5786 38.6843V29.8422C23.5786 28.0137 25.066 26.5264 26.8944 26.5264H38.6839C40.5123 26.5264 41.9997 28.0137 41.9997 29.8422V38.6843C41.9997 40.5127 40.5123 42.0001 38.6839 42.0001ZM26.8944 28.7369C26.2849 28.7369 25.7891 29.2327 25.7891 29.8422V38.6843C25.7891 39.2937 26.2849 39.7895 26.8944 39.7895H38.6839C39.2934 39.7895 39.7891 39.2937 39.7891 38.6843V29.8422C39.7891 29.2327 39.2934 28.7369 38.6839 28.7369H26.8944Z" fill="white"/>
<path d="M37.5787 28.7369C36.9682 28.7369 36.4735 28.2422 36.4735 27.6316V25.0527C36.4735 23.0213 34.8206 21.3685 32.7893 21.3685C31.8074 21.3685 30.8802 21.752 30.1779 22.4482C29.4886 23.1437 29.1051 24.0708 29.1051 25.0527V27.6316C29.1051 28.2422 28.6103 28.7369 27.9998 28.7369C27.3892 28.7369 26.8945 28.2422 26.8945 27.6316V25.0527C26.8945 23.484 27.5054 22.0042 28.6147 20.8849C29.7408 19.7689 31.2206 19.158 32.7893 19.158C36.0396 19.158 38.684 21.8024 38.684 25.0527V27.6316C38.684 28.2422 38.1893 28.7369 37.5787 28.7369Z" fill="white"/>
<path d="M32.7891 35.3075C34.0949 35.3075 35.1535 34.249 35.1535 32.9432C35.1535 31.6374 34.0949 30.5789 32.7891 30.5789C31.4834 30.5789 30.4248 31.6374 30.4248 32.9432C30.4248 34.249 31.4834 35.3075 32.7891 35.3075Z" fill="white"/>
<path d="M32.7896 38.194C32.179 38.194 31.6843 37.6993 31.6843 37.0887V34.263C31.6843 33.6524 32.179 33.1577 32.7896 33.1577C33.4001 33.1577 33.8949 33.6524 33.8949 34.263V37.0887C33.8949 37.6993 33.4001 38.194 32.7896 38.194Z" fill="white"/>
</svg>
