<svg width="27" height="37" viewBox="0 0 27 37" fill="none" xmlns="http://www.w3.org/2000/svg">
<path d="M25.23 13.741C25.23 15.5601 24.8129 17.2786 24.0693 18.8111C22.1849 22.6853 13.6175 34.6697 13.6175 34.6697C13.6175 34.6697 5.25109 22.816 3.31149 19.1026C2.47234 17.4997 2 15.6756 2 13.736C2 7.32428 7.20075 2.12354 13.6125 2.12354C20.0293 2.12856 25.23 7.32428 25.23 13.741Z" stroke="white" stroke-width="2.6322" stroke-miterlimit="10" stroke-linecap="square"/>
<path d="M18.2232 14.8308C18.8263 12.2872 17.2532 9.73628 14.7096 9.13319C12.1659 8.53009 9.61502 10.1032 9.01192 12.6468C8.40883 15.1904 9.98193 17.7413 12.5256 18.3444C15.0692 18.9475 17.6201 17.3744 18.2232 14.8308Z" stroke="white" stroke-width="2.6322" stroke-miterlimit="10" stroke-linecap="square"/>
</svg>
