<svg width="59" height="51" viewBox="0 0 59 51" fill="none" xmlns="http://www.w3.org/2000/svg">
<path d="M0 8.08413C0.133656 7.54951 0.239108 7.00753 0.404645 6.48394C1.56218 2.83844 4.89868 0.344348 8.77592 0.322277C14.9891 0.287943 21.2035 0.280586 27.4179 0.322277C32.3693 0.355384 36.211 4.27678 36.2379 9.22082C36.2392 9.50162 36.2379 9.78242 36.2379 10.1258C36.5273 10.1258 36.7517 10.1258 36.9761 10.1258C41.4885 10.1331 46.0009 10.0816 50.5121 10.165C54.4568 10.2386 58.0729 13.5726 58.6124 17.4768C58.6885 18.0237 58.7265 18.5792 58.7277 19.131C58.7375 22.9359 58.7351 26.7408 58.7326 30.5457C58.7301 35.6222 54.8541 39.4933 49.7642 39.5068C49.5201 39.508 49.2761 39.5068 48.9684 39.5068C48.9684 39.7643 48.9684 39.9678 48.9684 40.1726C48.9684 43.0983 48.9647 46.0228 48.972 48.9485C48.9733 49.477 48.8911 49.9442 48.3454 50.1845C47.7814 50.4322 47.4037 50.1232 47.0359 49.7554C43.7533 46.4679 40.4646 43.1854 37.1895 39.8906C36.9123 39.611 36.6364 39.4921 36.2404 39.4982C34.6341 39.5203 33.029 39.5117 31.4226 39.5068C26.4234 39.4896 22.5192 35.5903 22.4983 30.5984C22.4971 30.3336 22.4983 30.0699 22.4983 29.7327C21.6756 29.7327 20.8982 29.7082 20.1244 29.7499C19.9368 29.7597 19.7382 29.9682 19.5824 30.1239C16.9547 32.7418 14.3355 35.3683 11.7065 37.9851C11.5091 38.1813 11.2737 38.3897 11.0186 38.4657C10.316 38.6754 9.77405 38.1665 9.7716 37.3278C9.76547 35.0336 9.76915 32.7394 9.76915 30.4451C9.76915 30.2367 9.76915 30.0295 9.76915 29.772C9.15359 29.7339 8.56992 29.7082 7.9887 29.6591C4.06731 29.3318 0.76147 26.2785 0.121393 22.4013C0.0968687 22.2529 0.0416921 22.1107 0.0012274 21.9647C1.19749e-06 17.3383 0 12.7118 0 8.08413ZM46.8017 46.7659C46.8581 46.7426 46.9145 46.7181 46.9696 46.6948C46.9696 46.4912 46.9696 46.2877 46.9696 46.0841C46.9696 43.6955 46.9672 41.3068 46.9709 38.917C46.9721 37.8171 47.2615 37.5363 48.3749 37.5326C48.8715 37.5314 49.3693 37.5412 49.8659 37.5301C53.7321 37.4455 56.7143 34.575 56.767 30.7774C56.8222 26.8033 56.8197 22.8268 56.7682 18.8526C56.7192 15.0575 53.6659 12.0987 49.8806 12.095C43.6503 12.0877 37.42 12.0815 31.1909 12.0987C27.7416 12.1085 24.7447 14.9092 24.54 18.3499C24.4406 20.0261 24.4848 21.7121 24.4872 23.3933C24.4922 26.0676 24.4382 28.7469 24.5559 31.4175C24.6908 34.4683 27.4853 37.2677 30.5422 37.4492C32.6182 37.5731 34.7052 37.5265 36.7873 37.5252C37.3624 37.524 37.7964 37.6895 38.2072 38.1052C40.5039 40.4301 42.8239 42.7317 45.1328 45.0443C45.6956 45.6096 46.245 46.192 46.8017 46.7659ZM34.1877 10.1282C34.7505 6.11853 31.6532 2.37739 27.7073 2.34183C21.3433 2.28543 14.9793 2.29524 8.61529 2.33693C4.98206 2.36022 2.01955 5.34725 1.96928 9.01972C1.91533 13.0135 1.92759 17.0084 1.96683 21.0022C1.99503 23.8752 3.82697 26.3509 6.52339 27.3404C7.62697 27.745 8.76857 27.7303 9.91506 27.7242C11.6207 27.7156 11.7654 27.8689 11.7654 29.5954C11.7654 31.2005 11.7642 32.8056 11.7666 34.4119C11.7666 34.6044 11.7875 34.7969 11.7985 34.9894C11.8525 35.0127 11.9076 35.036 11.9616 35.0593C12.0891 34.8938 12.2019 34.7123 12.3478 34.5652C14.425 32.4806 16.5169 30.4096 18.5819 28.3128C19.0061 27.8824 19.4561 27.6899 20.0545 27.7144C20.8491 27.7475 21.6461 27.723 22.4959 27.723C22.4959 27.4508 22.4959 27.2448 22.4959 27.0388C22.4959 24.3828 22.4861 21.7256 22.5033 19.0697C22.5069 18.4811 22.5474 17.8815 22.6639 17.3064C23.5369 13.0306 26.9985 10.1846 31.3662 10.1307C32.3006 10.1184 33.2337 10.1282 34.1877 10.1282Z" fill="white"/>
<path d="M40.6091 31.6877C37.1107 31.6877 33.6111 31.6877 30.1128 31.6877C29.9791 31.6877 29.8455 31.6889 29.7118 31.6877C28.867 31.6815 28.3728 31.3088 28.374 30.6809C28.3753 30.0507 28.8645 29.6804 29.7143 29.6804C36.9795 29.6791 44.2448 29.6791 51.51 29.684C51.754 29.684 52.0127 29.7037 52.2408 29.7834C52.6651 29.9305 52.9397 30.2922 52.8441 30.7079C52.7693 31.0329 52.4971 31.3578 52.2249 31.5736C52.0471 31.7134 51.7135 31.684 51.4499 31.684C47.8363 31.6901 44.2227 31.6877 40.6091 31.6877Z" fill="white"/>
<path d="M40.6091 17.9537C44.2215 17.9537 47.8351 17.9537 51.4475 17.9537C51.6191 17.9537 51.7932 17.9427 51.9637 17.9598C52.491 18.0125 52.887 18.4552 52.8723 18.9629C52.8576 19.457 52.4811 19.8531 51.9661 19.9009C51.7761 19.9181 51.5848 19.9119 51.3935 19.9119C44.2067 19.9119 37.0187 19.9119 29.832 19.9119C28.8571 19.9119 28.374 19.587 28.374 18.9346C28.374 18.2811 28.8608 17.9525 29.8295 17.9525C33.4223 17.9537 37.0163 17.9537 40.6091 17.9537Z" fill="white"/>
<path d="M40.6621 23.8137C44.2757 23.8137 47.8881 23.8124 51.5017 23.8161C51.7285 23.8161 51.9664 23.8174 52.1785 23.8848C52.6518 24.0356 52.9044 24.3949 52.8615 24.8866C52.8186 25.3709 52.5341 25.6947 52.0289 25.767C51.8217 25.7964 51.6096 25.7977 51.3999 25.7989C44.2119 25.8001 37.0239 25.8001 29.8359 25.8001C28.866 25.8001 28.3792 25.469 28.3755 24.8155C28.3718 24.157 28.866 23.8149 29.8237 23.8149C33.436 23.8137 37.0484 23.8137 40.6621 23.8137Z" fill="white"/>
<path d="M16.1155 10.1409C12.7716 10.1409 9.42902 10.1421 6.08517 10.1396C5.36907 10.1384 4.95584 9.81593 4.90679 9.24084C4.86019 8.70008 5.19372 8.26723 5.73325 8.19121C5.92086 8.16423 6.1146 8.16791 6.30466 8.16791C12.8771 8.16669 19.4495 8.16669 26.022 8.16791C26.1753 8.16791 26.3285 8.16546 26.4806 8.18017C27.0459 8.23535 27.4113 8.61548 27.4125 9.14519C27.4137 9.65897 27.0299 10.0771 26.4916 10.1347C26.3212 10.1531 26.1483 10.1421 25.9766 10.1421C22.6879 10.1409 19.4017 10.1409 16.1155 10.1409Z" fill="white"/>
<path d="M13.2509 15.9971C10.8242 15.9971 8.39755 16.0007 5.9709 15.9946C5.2781 15.9934 4.85996 15.5642 4.90533 14.9389C4.9458 14.3907 5.33082 14.0511 5.96109 14.0474C7.58458 14.0388 9.2093 14.0437 10.8328 14.0437C14.0234 14.0437 17.2139 14.0474 20.4057 14.04C20.8692 14.0388 21.2862 14.1614 21.4223 14.609C21.5106 14.8984 21.5044 15.3509 21.3315 15.552C21.1206 15.7984 20.6939 15.9738 20.3567 15.9787C17.9889 16.013 15.6199 15.9971 13.2509 15.9971Z" fill="white"/>
<path d="M12.7344 21.8724C10.6143 21.8724 8.49424 21.8724 6.37413 21.8724C6.18285 21.8724 5.99156 21.8773 5.8015 21.8589C5.2681 21.8087 4.91741 21.4408 4.90147 20.9282C4.8843 20.3961 5.24358 19.9657 5.78556 19.9179C6.12644 19.8872 6.47223 19.9068 6.81679 19.9068C10.9994 19.9068 15.1819 19.9105 19.3645 19.9031C19.9188 19.9019 20.3541 20.0662 20.5171 20.6303C20.7109 21.3022 20.256 21.8577 19.4957 21.8675C18.1592 21.8847 16.8226 21.8736 15.4848 21.8736C14.5676 21.8724 13.6516 21.8724 12.7344 21.8724Z" fill="white"/>
</svg>
