<svg width="38" height="42" viewBox="0 0 38 42" fill="none" xmlns="http://www.w3.org/2000/svg">
<path d="M34.4736 36.1051H3.52624C1.6978 36.1051 0.210449 34.6178 0.210449 32.7893V6.99987C0.210449 5.17143 1.6978 3.68408 3.52624 3.68408H10.8947C11.5052 3.68408 11.9999 4.17915 11.9999 4.78935C11.9999 5.39954 11.5052 5.89461 10.8947 5.89461H3.52624C2.91676 5.89461 2.42098 6.39039 2.42098 6.99987V32.7893C2.42098 33.3988 2.91676 33.8946 3.52624 33.8946H34.4736C35.0831 33.8946 35.5789 33.3988 35.5789 32.7893V6.99987C35.5789 6.39039 35.0831 5.89461 34.4736 5.89461H32.2631C31.6525 5.89461 31.1578 5.39954 31.1578 4.78935C31.1578 4.17915 31.6525 3.68408 32.2631 3.68408H34.4736C36.302 3.68408 37.7894 5.17143 37.7894 6.99987V32.7893C37.7894 34.6178 36.302 36.1051 34.4736 36.1051Z" fill="white"/>
<path d="M13.1052 30.9473H1.31571C0.705158 30.9473 0.210449 30.4523 0.210449 29.8421C0.210449 29.2319 0.705158 28.7368 1.31571 28.7368H13.1052C13.7157 28.7368 14.2105 29.2319 14.2105 29.8421C14.2105 30.4523 13.7157 30.9473 13.1052 30.9473Z" fill="white"/>
<path d="M36.6842 30.9473H24.8947C24.2841 30.9473 23.7894 30.4523 23.7894 29.8421C23.7894 29.2319 24.2841 28.7368 24.8947 28.7368H36.6842C37.2947 28.7368 37.7894 29.2319 37.7894 29.8421C37.7894 30.4523 37.2947 30.9473 36.6842 30.9473Z" fill="white"/>
<path d="M13.1051 42C12.4946 42 11.9999 41.505 11.9999 40.8948V35C11.9999 34.3898 12.4946 33.8948 13.1051 33.8948C13.7157 33.8948 14.2104 34.3898 14.2104 35V40.8948C14.2104 41.505 13.7157 42 13.1051 42Z" fill="white"/>
<path d="M24.8947 42C24.2841 42 23.7894 41.505 23.7894 40.8948V35C23.7894 34.3898 24.2841 33.8948 24.8947 33.8948C25.5052 33.8948 26 34.3898 26 35V40.8948C26 41.505 25.5052 42 24.8947 42Z" fill="white"/>
<path d="M28.5785 42.0001H9.42094C8.81038 42.0001 8.31567 41.505 8.31567 40.8948C8.31567 40.2846 8.81038 39.7896 9.42094 39.7896H28.5785C29.189 39.7896 29.6837 40.2846 29.6837 40.8948C29.6837 41.505 29.189 42.0001 28.5785 42.0001Z" fill="white"/>
<path d="M18.9999 32.4211C17.1714 32.4211 15.6841 30.9338 15.6841 29.1053C15.6841 27.2769 17.1714 25.7896 18.9999 25.7896C20.8283 25.7896 22.3157 27.2769 22.3157 29.1053C22.3157 30.9338 20.8283 32.4211 18.9999 32.4211ZM18.9999 28.0001C18.3904 28.0001 17.8946 28.4959 17.8946 29.1053C17.8946 29.7148 18.3904 30.2106 18.9999 30.2106C19.6094 30.2106 20.1051 29.7148 20.1051 29.1053C20.1051 28.4959 19.6094 28.0001 18.9999 28.0001Z" fill="white"/>
<path d="M30.7894 27.2632C28.961 27.2632 27.4736 25.7758 27.4736 23.9474C27.4736 22.1189 28.961 20.6316 30.7894 20.6316C32.6179 20.6316 34.1052 22.1189 34.1052 23.9474C34.1052 25.7758 32.6179 27.2632 30.7894 27.2632ZM30.7894 22.8421C30.1799 22.8421 29.6842 23.3379 29.6842 23.9474C29.6842 24.5569 30.1799 25.0526 30.7894 25.0526C31.3989 25.0526 31.8947 24.5569 31.8947 23.9474C31.8947 23.3379 31.3989 22.8421 30.7894 22.8421Z" fill="white"/>
<path d="M18.9999 28C18.3894 28 17.8947 27.5049 17.8947 26.8947V21.7369C17.8947 21.1267 18.3894 20.6316 18.9999 20.6316C19.6105 20.6316 20.1052 21.1267 20.1052 21.7369V26.8947C20.1052 27.5049 19.6105 28 18.9999 28Z" fill="white"/>
<path d="M30.7895 22.842C30.1789 22.842 29.6842 22.347 29.6842 21.7368V17.8468L26.4148 15.2311C25.9381 14.8498 25.8607 14.1547 26.2421 13.6776C26.6239 13.2012 27.32 13.1242 27.7957 13.5056L31.4799 16.453C31.7422 16.6624 31.8947 16.9797 31.8947 17.3157V21.7368C31.8947 22.347 31.4 22.842 30.7895 22.842Z" fill="white"/>
<path d="M7.21044 27.2632C5.38201 27.2632 3.89465 25.7758 3.89465 23.9474C3.89465 22.1189 5.38201 20.6316 7.21044 20.6316C9.03888 20.6316 10.5262 22.1189 10.5262 23.9474C10.5262 25.7758 9.03888 27.2632 7.21044 27.2632ZM7.21044 22.8421C6.60096 22.8421 6.10518 23.3379 6.10518 23.9474C6.10518 24.5569 6.60096 25.0526 7.21044 25.0526C7.81992 25.0526 8.31571 24.5569 8.31571 23.9474C8.31571 23.3379 7.81992 22.8421 7.21044 22.8421Z" fill="white"/>
<path d="M7.21049 22.8421C6.59993 22.8421 6.10522 22.347 6.10522 21.7368V17.3157C6.10522 16.9797 6.25777 16.6624 6.52006 16.453L10.2043 13.5056C10.681 13.1242 11.3772 13.2012 11.7578 13.6776C12.1392 14.1547 12.0618 14.8498 11.5851 15.2311L8.31575 17.8468V21.7368C8.31575 22.347 7.82104 22.8421 7.21049 22.8421Z" fill="white"/>
<path d="M19 22.8418C18.8179 22.8418 18.6359 22.7965 18.4707 22.7066L12.6695 19.5426C10.8929 18.5733 9.78943 16.7147 9.78943 14.6913V3.52204C9.78943 3.03345 10.1104 2.60243 10.5788 2.46283L18.6841 0.0457927C18.8812 -0.0132136 19.0913 -0.0153725 19.2907 0.0385938L27.3959 2.2484C27.877 2.37936 28.2105 2.81614 28.2105 3.31481V14.6912C28.2105 16.7147 27.107 18.5733 25.3304 19.5426L19.5292 22.7066C19.3641 22.7965 19.182 22.8418 19 22.8418ZM12 4.34596V14.6913C12 15.9052 12.6623 17.0205 13.728 17.6026L19 20.4773L24.2719 17.6026C25.3376 17.0205 26 15.9052 26 14.6913V4.15887L19.0136 2.25416L12 4.34596Z" fill="white"/>
<path d="M18.2627 14.0005C18.0306 14.0005 17.7975 13.9278 17.6 13.7795L14.6526 11.569C14.1644 11.2028 14.0651 10.5098 14.4313 10.0212C14.7987 9.53407 15.4916 9.43549 15.9788 9.80031L18.1594 11.4359L21.9027 7.69197C22.3337 7.26023 23.0338 7.26023 23.4656 7.69197C23.8973 8.12372 23.8973 8.82314 23.4656 9.25488L19.0445 13.6767C18.8304 13.8911 18.5473 14.0005 18.2627 14.0005Z" fill="white"/>
</svg>
