<svg width="48" height="48" viewBox="0 0 48 48" fill="none" xmlns="http://www.w3.org/2000/svg">
<path d="M23.6015 44.4726C22.916 44.4726 22.3605 43.9167 22.3605 43.2315V38.8377C22.3605 38.1526 22.916 37.5967 23.6015 37.5967C24.2871 37.5967 24.8426 38.1526 24.8426 38.8377V43.2315C24.8426 43.9167 24.2871 44.4726 23.6015 44.4726Z" fill="white"/>
<path d="M23.6015 15.2581C22.916 15.2581 22.3605 14.7022 22.3605 14.0171V3.26937C22.3605 2.58421 22.916 2.02832 23.6015 2.02832C24.2871 2.02832 24.8426 2.58421 24.8426 3.26937V14.0171C24.8426 14.7022 24.2871 15.2581 23.6015 15.2581Z" fill="white"/>
<path d="M10.9841 40.4932C4.93924 40.4932 0.0214844 35.5751 0.0214844 29.5306C0.0214844 24.6545 3.29379 20.3181 7.97885 18.9857C8.63614 18.7983 9.32453 19.1796 9.51239 19.8397C9.69984 20.4991 9.31727 21.185 8.65836 21.3725C5.03458 22.4034 2.5036 25.7582 2.5036 29.5306C2.5036 34.2072 6.30795 38.0111 10.9841 38.0111C11.7812 38.0111 12.571 37.9004 13.3313 37.6823C13.9874 37.4948 14.6778 37.8746 14.8665 38.5339C15.0555 39.1924 14.6742 39.88 14.0157 40.0691C13.0327 40.3502 12.0127 40.4932 10.9841 40.4932Z" fill="white"/>
<path d="M30.2093 47.5257C27.7555 47.5257 25.4115 46.6183 23.6017 45.0007C21.7918 46.6183 19.4474 47.5257 16.994 47.5257C12.1276 47.5257 7.91115 43.8954 7.1868 39.0823C7.08499 38.4044 7.5516 37.7718 8.22949 37.67C8.90617 37.5649 9.53922 38.0352 9.64142 38.7123C10.1844 42.3215 13.3456 45.0436 16.994 45.0436C19.1723 45.0436 21.2367 44.0885 22.6575 42.4233C23.1294 41.8706 24.0743 41.8706 24.5454 42.4233C25.9666 44.0885 28.031 45.0436 30.2093 45.0436C33.8581 45.0436 37.0189 42.3215 37.5619 38.7131C37.6645 38.0344 38.3004 37.5649 38.9734 37.67C39.6513 37.7718 40.1183 38.4044 40.0165 39.0815C39.2926 43.8954 35.0766 47.5257 30.2093 47.5257Z" fill="white"/>
<path d="M36.2186 40.4931C35.19 40.4931 34.1703 40.35 33.1878 40.0689C32.5285 39.8798 32.148 39.1922 32.3362 38.5337C32.5261 37.8752 33.2137 37.4946 33.8714 37.6821C34.6317 37.9002 35.4219 38.0109 36.2185 38.0109C40.8951 38.0109 44.6991 34.207 44.6991 29.5304C44.6991 25.758 42.1685 22.4032 38.5447 21.3723C37.8854 21.1848 37.5032 20.4989 37.6907 19.8395C37.8781 19.1794 38.5649 18.7972 39.2234 18.9855C43.9089 20.3179 47.1812 24.6543 47.1812 29.5304C47.1812 35.5749 42.263 40.4931 36.2186 40.4931Z" fill="white"/>
<path d="M3.90226 24.1259C3.40131 24.1259 2.92946 23.8213 2.7416 23.3252C2.30933 22.1851 2.08997 21.0023 2.08997 19.8089C2.08997 15.3876 4.9902 11.5635 9.13391 10.3143C9.12623 10.1681 9.1226 10.0235 9.1226 9.88046C9.1226 4.63426 13.3907 0.365723 18.6373 0.365723C20.4068 0.365723 22.106 0.8497 23.6015 1.7716C25.0979 0.848898 26.7963 0.365723 28.5658 0.365723C33.812 0.365723 38.0805 4.63426 38.0805 9.88046C38.0805 10.0235 38.0765 10.1681 38.0692 10.3143C42.2133 11.5643 45.1131 15.3884 45.1131 19.8089C45.1131 21.0031 44.8934 22.1859 44.4611 23.3252C44.2179 23.9675 43.4988 24.2883 42.8605 24.0451C42.2198 23.8019 41.8974 23.0852 42.1406 22.4445C42.4662 21.5872 42.631 20.7009 42.631 19.8089C42.631 16.1988 40.0511 13.1188 36.4969 12.4862C35.8254 12.3666 35.3762 11.7283 35.4909 11.0561C35.5628 10.6311 35.5984 10.2465 35.5984 9.88045C35.5984 6.00297 32.4432 2.84782 28.5657 2.84782C27.0379 2.84782 25.5795 3.33746 24.3477 4.2642C23.9057 4.59708 23.2973 4.59708 22.8554 4.2642C21.624 3.33745 20.1656 2.84782 18.6373 2.84782C14.7595 2.84782 11.6047 6.00297 11.6047 9.88045C11.6047 10.2432 11.6399 10.6286 11.7122 11.0585C11.8253 11.7299 11.3764 12.3674 10.7058 12.4862C7.15194 13.1188 4.57207 16.1988 4.57207 19.8089C4.57207 20.7001 4.7369 21.5872 5.06211 22.4445C5.30532 23.0852 4.98293 23.8019 4.3422 24.0451C4.19717 24.1001 4.0485 24.1259 3.90226 24.1259Z" fill="white"/>
<path d="M27.7396 15.2582C27.6265 15.2582 27.5117 15.2428 27.3978 15.2105C26.7385 15.0223 26.3571 14.3355 26.5454 13.6762L28.2001 7.88459C28.3124 7.4911 28.6122 7.17762 29.0008 7.04834L31.4829 6.22097C32.1325 6.00362 32.8371 6.35591 33.0528 7.00551C33.2694 7.65593 32.9187 8.35887 32.2683 8.57541L30.4067 9.19594L28.9321 14.3581C28.7762 14.9035 28.2793 15.2582 27.7396 15.2582Z" fill="white"/>
<path d="M37.6667 17.7404H33.5299C32.8447 17.7404 32.2888 17.1845 32.2888 16.4994C32.2888 15.8142 32.8447 15.2583 33.5299 15.2583H37.6667C38.3519 15.2583 38.9078 15.8142 38.9078 16.4994C38.9078 17.1845 38.3519 17.7404 37.6667 17.7404Z" fill="white"/>
<path d="M40.9762 30.9786C40.6587 30.9786 40.3411 30.8574 40.0987 30.615L37.1528 27.6691H33.5299C32.8447 27.6691 32.2888 27.1132 32.2888 26.4281C32.2888 25.7429 32.8447 25.187 33.5299 25.187H37.6667C37.9956 25.187 38.3115 25.3179 38.5442 25.5506L41.8537 28.8601C42.3384 29.3449 42.3384 30.1302 41.8537 30.615C41.6113 30.8574 41.2937 30.9786 40.9762 30.9786Z" fill="white"/>
<path d="M30.2205 42.5617C29.9029 42.5617 29.5854 42.4405 29.343 42.1981L26.8609 39.716C26.6282 39.4833 26.4973 39.1674 26.4973 38.8386V33.8744C26.4973 33.1892 27.0532 32.6333 27.7384 32.6333C28.4235 32.6333 28.9794 33.1892 28.9794 33.8744V38.3247L31.0979 40.4432C31.5827 40.928 31.5827 41.7134 31.0979 42.1981C30.8555 42.4405 30.538 42.5617 30.2205 42.5617Z" fill="white"/>
<path d="M19.4642 15.2581C18.9244 15.2581 18.4275 14.9034 18.2716 14.358L16.7966 9.19586L14.9359 8.57534C14.2854 8.3588 13.934 7.65586 14.1509 7.00544C14.3678 6.35663 15.0716 6.00354 15.7204 6.22089L18.2025 7.04826C18.5911 7.17754 18.8909 7.49104 19.0036 7.88452L20.6583 13.6761C20.8466 14.3354 20.4648 15.0222 19.8059 15.2104C19.692 15.2428 19.5773 15.2581 19.4642 15.2581Z" fill="white"/>
<path d="M13.6731 17.7404H9.53622C8.85065 17.7404 8.29517 17.1845 8.29517 16.4994C8.29517 15.8142 8.85065 15.2583 9.53622 15.2583H13.6731C14.3586 15.2583 14.9141 15.8142 14.9141 16.4994C14.9141 17.1845 14.3586 17.7404 13.6731 17.7404Z" fill="white"/>
<path d="M6.22677 30.9786C5.90924 30.9786 5.5917 30.8574 5.34931 30.615C4.86452 30.1302 4.86452 29.3449 5.34931 28.8601L8.65878 25.5506C8.89148 25.3179 9.207 25.187 9.53625 25.187H13.6731C14.3587 25.187 14.9141 25.7429 14.9141 26.4281C14.9141 27.1132 14.3587 27.6691 13.6731 27.6691H10.0501L7.10423 30.615C6.86184 30.8574 6.54431 30.9786 6.22677 30.9786Z" fill="white"/>
<path d="M11.1914 35.9423C10.8614 35.9423 10.5325 35.8114 10.2881 35.5528C9.81788 35.0543 9.8409 34.2689 10.3394 33.7987L12.9706 31.3166C13.4691 30.8463 14.2553 30.8698 14.7251 31.3675C15.1954 31.866 15.1723 32.6514 14.6738 33.1216L12.0426 35.6037C11.8031 35.8299 11.4969 35.9423 11.1914 35.9423Z" fill="white"/>
<path d="M36.0118 35.9425C35.7064 35.9425 35.4001 35.8302 35.1602 35.604L32.5294 33.1219C32.0309 32.6517 32.0083 31.8663 32.4785 31.3678C32.9487 30.8693 33.7341 30.8466 34.2326 31.3169L36.8634 33.799C37.3619 34.2692 37.3845 35.0546 36.9143 35.5531C36.6703 35.8117 36.3414 35.9425 36.0118 35.9425Z" fill="white"/>
<path d="M16.9825 42.5617C16.665 42.5617 16.3474 42.4405 16.105 42.1981C15.6203 41.7133 15.6203 40.928 16.105 40.4432L18.2236 38.3247V33.8744C18.2236 33.1892 18.7791 32.6333 19.4646 32.6333C20.1502 32.6333 20.7057 33.1892 20.7057 33.8744V38.8386C20.7057 39.1674 20.5748 39.4833 20.3421 39.716L17.86 42.1981C17.6176 42.4405 17.3 42.5617 16.9825 42.5617Z" fill="white"/>
<path d="M31.0482 35.1153H16.1555C14.1025 35.1153 12.4324 33.4452 12.4324 31.3922V16.4995C12.4324 14.4465 14.1025 12.7764 16.1555 12.7764H31.0482C33.1012 12.7764 34.7713 14.4465 34.7713 16.4995V31.3922C34.7713 33.4452 33.1012 35.1153 31.0482 35.1153ZM16.1555 15.2585C15.4712 15.2585 14.9145 15.8152 14.9145 16.4995V31.3922C14.9145 32.0765 15.4712 32.6332 16.1555 32.6332H31.0482C31.7325 32.6332 32.2892 32.0765 32.2892 31.3922V16.4995C32.2892 15.8152 31.7325 15.2585 31.0482 15.2585H16.1555Z" fill="white"/>
<path d="M27.7389 29.3232H19.4652C18.7796 29.3232 18.2241 28.7673 18.2241 28.0821V19.8084C18.2241 19.1233 18.7796 18.5674 19.4652 18.5674H27.7389C28.424 18.5674 28.9799 19.1233 28.9799 19.8084V28.0821C28.9799 28.7673 28.424 29.3232 27.7389 29.3232ZM20.7062 26.8411H26.4978V21.0495H20.7062V26.8411Z" fill="white"/>
<path d="M30.221 23.1178H27.7389C27.0537 23.1178 26.4978 22.562 26.4978 21.8768C26.4978 21.1916 27.0537 20.6357 27.7389 20.6357H30.221C30.9061 20.6357 31.462 21.1916 31.462 21.8768C31.462 22.562 30.9061 23.1178 30.221 23.1178Z" fill="white"/>
<path d="M30.221 27.2551H27.7389C27.0537 27.2551 26.4978 26.6992 26.4978 26.014C26.4978 25.3288 27.0537 24.7729 27.7389 24.7729H30.221C30.9061 24.7729 31.462 25.3288 31.462 26.014C31.462 26.6992 30.9061 27.2551 30.221 27.2551Z" fill="white"/>
<path d="M19.4652 23.1178H16.9831C16.2976 23.1178 15.7421 22.562 15.7421 21.8768C15.7421 21.1916 16.2976 20.6357 16.9831 20.6357H19.4652C20.1508 20.6357 20.7063 21.1916 20.7063 21.8768C20.7063 22.562 20.1508 23.1178 19.4652 23.1178Z" fill="white"/>
<path d="M19.4652 27.2551H16.9831C16.2976 27.2551 15.7421 26.6992 15.7421 26.014C15.7421 25.3288 16.2976 24.7729 16.9831 24.7729H19.4652C20.1508 24.7729 20.7063 25.3288 20.7063 26.014C20.7063 26.6992 20.1508 27.2551 19.4652 27.2551Z" fill="white"/>
<path d="M21.5337 21.0497C20.8481 21.0497 20.2926 20.4938 20.2926 19.8086V17.3265C20.2926 16.6413 20.8481 16.0854 21.5337 16.0854C22.2192 16.0854 22.7747 16.6413 22.7747 17.3265V19.8086C22.7747 20.4938 22.2192 21.0497 21.5337 21.0497Z" fill="white"/>
<path d="M25.6705 21.0497C24.9853 21.0497 24.4294 20.4938 24.4294 19.8086V17.3265C24.4294 16.6413 24.9853 16.0854 25.6705 16.0854C26.3557 16.0854 26.9115 16.6413 26.9115 17.3265V19.8086C26.9115 20.4938 26.3557 21.0497 25.6705 21.0497Z" fill="white"/>
<path d="M21.5337 31.8055C20.8481 31.8055 20.2926 31.2496 20.2926 30.5645V28.0824C20.2926 27.3972 20.8481 26.8413 21.5337 26.8413C22.2192 26.8413 22.7747 27.3972 22.7747 28.0824V30.5645C22.7747 31.2496 22.2192 31.8055 21.5337 31.8055Z" fill="white"/>
<path d="M25.6705 31.8055C24.9853 31.8055 24.4294 31.2496 24.4294 30.5645V28.0824C24.4294 27.3972 24.9853 26.8413 25.6705 26.8413C26.3557 26.8413 26.9115 27.3972 26.9115 28.0824V30.5645C26.9115 31.2496 26.3557 31.8055 25.6705 31.8055Z" fill="white"/>
</svg>
