<svg width="42" height="43" viewBox="0 0 42 43" fill="none" xmlns="http://www.w3.org/2000/svg">
<path d="M36.4734 18.1716C35.8629 18.1716 35.3682 17.6769 35.3682 17.0664V3.80358C35.3682 3.1941 34.8724 2.69832 34.2629 2.69832H10.684C10.0745 2.69832 9.57869 3.1941 9.57869 3.80358V15.5923C9.57869 16.2029 9.08398 16.6976 8.47343 16.6976C7.86287 16.6976 7.36816 16.2029 7.36816 15.5923V3.80358C7.36816 1.97515 8.85552 0.487793 10.684 0.487793H34.2629C36.0913 0.487793 37.5787 1.97515 37.5787 3.80358V17.0664C37.5787 17.6769 37.084 18.1716 36.4734 18.1716Z" fill="white"/>
<path d="M24.6846 32.9088H17.3162C16.7056 32.9088 16.2109 32.4141 16.2109 31.8035C16.2109 31.193 16.7056 30.6982 17.3162 30.6982H24.6846C25.2952 30.6982 25.7899 31.193 25.7899 31.8035C25.7899 32.4141 25.2952 32.9088 24.6846 32.9088Z" fill="white"/>
<path d="M15.1053 42.4878H3.31579C1.48735 42.4878 0 41.0004 0 39.172V17.8036C0 15.9751 1.48735 14.4878 3.31579 14.4878H15.1053C16.9337 14.4878 18.4211 15.9751 18.4211 17.8036V39.172C18.4211 41.0004 16.9337 42.4878 15.1053 42.4878ZM3.31579 16.6983C2.70631 16.6983 2.21053 17.1941 2.21053 17.8036V39.172C2.21053 39.7815 2.70631 40.2773 3.31579 40.2773H15.1053C15.7147 40.2773 16.2105 39.7815 16.2105 39.172V17.8036C16.2105 17.1941 15.7147 16.6983 15.1053 16.6983H3.31579Z" fill="white"/>
<path d="M12.1582 38.8038H6.26347C5.65291 38.8038 5.1582 38.3091 5.1582 37.6985C5.1582 37.088 5.65291 36.5933 6.26347 36.5933H12.1582C12.7688 36.5933 13.2635 37.088 13.2635 37.6985C13.2635 38.3091 12.7688 38.8038 12.1582 38.8038Z" fill="white"/>
<path d="M11.1607 20.3826H7.26139C6.20074 20.3826 5.26098 19.7461 4.86701 18.7614L3.76391 16.0036C3.53724 15.437 3.81284 14.7937 4.3795 14.567C4.94545 14.34 5.58982 14.6163 5.81613 15.1826L6.91923 17.9403C6.97572 18.081 7.10992 18.172 7.26139 18.172H11.1608C11.3122 18.172 11.4464 18.081 11.5029 17.9403L12.606 15.1826C12.8327 14.6156 13.476 14.3396 14.0426 14.567C14.6093 14.7937 14.8849 15.4369 14.6582 16.0036L13.5551 18.7614C13.1612 19.7461 12.2214 20.3826 11.1607 20.3826Z" fill="white"/>
<path d="M9.21032 35.1194C7.38188 35.1194 5.89453 33.632 5.89453 31.8036C5.89453 29.9751 7.38188 28.4878 9.21032 28.4878C11.0388 28.4878 12.5261 29.9751 12.5261 31.8036C12.5261 33.632 11.0388 35.1194 9.21032 35.1194ZM9.21032 30.6983C8.60084 30.6983 8.10506 31.1941 8.10506 31.8036C8.10506 32.4131 8.60084 32.9088 9.21032 32.9088C9.8198 32.9088 10.3156 32.4131 10.3156 31.8036C10.3156 31.1941 9.8198 30.6983 9.21032 30.6983Z" fill="white"/>
<path d="M9.21073 30.6986C8.60018 30.6986 8.10547 30.2038 8.10547 29.5933V22.9617C8.10547 22.3512 8.60018 21.8564 9.21073 21.8564H10.6844C11.295 21.8564 11.7897 22.3512 11.7897 22.9617C11.7897 23.5723 11.295 24.067 10.6844 24.067H10.316V29.5933C10.316 30.2038 9.82129 30.6986 9.21073 30.6986Z" fill="white"/>
<path d="M10.6844 27.0142H9.21073C8.60018 27.0142 8.10547 26.5195 8.10547 25.909C8.10547 25.2984 8.60018 24.8037 9.21073 24.8037H10.6844C11.295 24.8037 11.7897 25.2984 11.7897 25.909C11.7897 26.5195 11.295 27.0142 10.6844 27.0142Z" fill="white"/>
<path d="M36.4734 9.32967H8.47343C7.86287 9.32967 7.36816 8.83496 7.36816 8.2244C7.36816 7.61385 7.86287 7.11914 8.47343 7.11914H36.4734C37.084 7.11914 37.5787 7.61385 37.5787 8.2244C37.5787 8.83496 37.084 9.32967 36.4734 9.32967Z" fill="white"/>
<path d="M16.5785 13.0142H12.8943C12.2838 13.0142 11.7891 12.5195 11.7891 11.909C11.7891 11.2984 12.2838 10.8037 12.8943 10.8037H16.5785C17.1891 10.8037 17.6838 11.2984 17.6838 11.909C17.6838 12.5195 17.1891 13.0142 16.5785 13.0142Z" fill="white"/>
<path d="M32.0529 13.0142H20.2635C19.6529 13.0142 19.1582 12.5195 19.1582 11.909C19.1582 11.2984 19.6529 10.8037 20.2635 10.8037H32.0529C32.6635 10.8037 33.1582 11.2984 33.1582 11.909C33.1582 12.5195 32.6635 13.0142 32.0529 13.0142Z" fill="white"/>
<path d="M25.4207 21.856H21.7361C21.1256 21.856 20.6309 21.3613 20.6309 20.7508C20.6309 20.1402 21.1256 19.6455 21.7361 19.6455H25.4207C26.0312 19.6455 26.526 20.1402 26.526 20.7508C26.526 21.3613 26.0312 21.856 25.4207 21.856Z" fill="white"/>
<path d="M23.2102 26.2774H21.7361C21.1256 26.2774 20.6309 25.7827 20.6309 25.1722C20.6309 24.5616 21.1256 24.0669 21.7361 24.0669H23.2102C23.8207 24.0669 24.3154 24.5616 24.3154 25.1722C24.3154 25.7827 23.8207 26.2774 23.2102 26.2774Z" fill="white"/>
<path d="M30.5789 17.4351H29.1053C28.4947 17.4351 28 16.9404 28 16.3299C28 15.7193 28.4947 15.2246 29.1053 15.2246H30.5789C31.1895 15.2246 31.6842 15.7193 31.6842 16.3299C31.6842 16.9404 31.1895 17.4351 30.5789 17.4351Z" fill="white"/>
<path d="M25.4213 17.4351H21.7371C21.1265 17.4351 20.6318 16.9404 20.6318 16.3299C20.6318 15.7193 21.1265 15.2246 21.7371 15.2246H25.4213C26.0319 15.2246 26.5266 15.7193 26.5266 16.3299C26.5266 16.9404 26.0319 17.4351 25.4213 17.4351Z" fill="white"/>
<path d="M21.368 6.01424C21.9784 6.01424 22.4732 5.51939 22.4732 4.90897C22.4732 4.29855 21.9784 3.80371 21.368 3.80371C20.7575 3.80371 20.2627 4.29855 20.2627 4.90897C20.2627 5.51939 20.7575 6.01424 21.368 6.01424Z" fill="white"/>
<path d="M17.3162 6.01424C17.9266 6.01424 18.4215 5.51939 18.4215 4.90897C18.4215 4.29855 17.9266 3.80371 17.3162 3.80371C16.7058 3.80371 16.2109 4.29855 16.2109 4.90897C16.2109 5.51939 16.7058 6.01424 17.3162 6.01424Z" fill="white"/>
<path d="M13.2635 6.01424C13.8739 6.01424 14.3687 5.51939 14.3687 4.90897C14.3687 4.29855 13.8739 3.80371 13.2635 3.80371C12.653 3.80371 12.1582 4.29855 12.1582 4.90897C12.1582 5.51939 12.653 6.01424 13.2635 6.01424Z" fill="white"/>
<path d="M38.6844 42.4878H26.8949C25.0665 42.4878 23.5791 41.0005 23.5791 39.1721V30.3299C23.5791 28.5015 25.0665 27.0142 26.8949 27.0142H38.6844C40.5128 27.0142 42.0002 28.5015 42.0002 30.3299V39.1721C42.0002 41.0005 40.5128 42.4878 38.6844 42.4878ZM26.8949 29.2247C26.2854 29.2247 25.7896 29.7205 25.7896 30.3299V39.1721C25.7896 39.7815 26.2854 40.2773 26.8949 40.2773H38.6844C39.2938 40.2773 39.7896 39.7815 39.7896 39.1721V30.3299C39.7896 29.7205 39.2938 29.2247 38.6844 29.2247H26.8949Z" fill="white"/>
<path d="M37.5787 29.2245C36.9682 29.2245 36.4735 28.7297 36.4735 28.1192V25.5402C36.4735 23.5089 34.8206 21.856 32.7893 21.856C31.8074 21.856 30.8802 22.2396 30.1779 22.9357C29.4886 23.6312 29.1051 24.5584 29.1051 25.5402V28.1192C29.1051 28.7297 28.6103 29.2245 27.9998 29.2245C27.3892 29.2245 26.8945 28.7297 26.8945 28.1192V25.5402C26.8945 23.9716 27.5054 22.4918 28.6147 21.3725C29.7408 20.2564 31.2206 19.6455 32.7893 19.6455C36.0396 19.6455 38.684 22.2899 38.684 25.5402V28.1192C38.684 28.7297 38.1893 29.2245 37.5787 29.2245Z" fill="white"/>
<path d="M32.7891 35.7956C34.0949 35.7956 35.1535 34.737 35.1535 33.4312C35.1535 32.1254 34.0949 31.0669 32.7891 31.0669C31.4834 31.0669 30.4248 32.1254 30.4248 33.4312C30.4248 34.737 31.4834 35.7956 32.7891 35.7956Z" fill="white"/>
<path d="M32.7898 38.6818C32.1793 38.6818 31.6846 38.1871 31.6846 37.5765V34.7508C31.6846 34.1402 32.1793 33.6455 32.7898 33.6455C33.4004 33.6455 33.8951 34.1402 33.8951 34.7508V37.5765C33.8951 38.1871 33.4004 38.6818 32.7898 38.6818Z" fill="white"/>
</svg>
