<svg width="29" height="29" viewBox="0 0 29 29" fill="none" xmlns="http://www.w3.org/2000/svg">
<path d="M8.98931 11.4228C8.42366 10.5214 8.52943 10.2685 8.52943 10.2685L10.2126 7.82652C10.6633 7.21948 10.5989 6.37331 10.0654 5.83985L6.57955 2.37697C6.07368 1.8711 5.26889 1.82512 4.70324 2.262L3.18565 3.43469C3.05688 3.53586 2.93271 3.65543 2.83614 3.78879C-0.148468 7.95529 4.04102 14.5177 9.20545 19.6546C14.2319 24.6489 21.0289 29.1005 25.1356 25.9181C25.2506 25.8261 25.3518 25.7204 25.4437 25.6008L26.6256 24.0556C27.0625 23.4854 27.0073 22.6852 26.4969 22.1793L23.0156 18.7164C22.4775 18.183 21.6314 18.1232 21.0289 18.5785L18.5962 20.2754C18.5962 20.2754 17.6258 20.6295 12.9029 15.9342C11.2151 14.2556 10.1758 13.0599 9.53656 12.2092C9.30662 11.901 9.12727 11.6435 8.98931 11.4228Z" stroke="white" stroke-width="2.6322" stroke-miterlimit="10" stroke-linecap="square"/>
<path d="M22.1139 13.5885C22.1139 12.5768 21.8932 11.5513 21.4241 10.5809C20.2468 8.14816 17.8233 6.71794 15.2939 6.68115" stroke="white" stroke-width="2.6322" stroke-miterlimit="10" stroke-linecap="square"/>
<path d="M26.0926 13.5889C26.0926 11.9977 25.7431 10.379 25.0027 8.84758C23.1356 4.99381 19.3002 2.7358 15.29 2.70361" stroke="white" stroke-width="2.6322" stroke-miterlimit="10" stroke-linecap="square"/>
<path d="M25.0027 8.84758C23.6414 5.70202 19.4013 2.87837 15.29 2.70361" stroke="white" stroke-width="2.6322" stroke-miterlimit="10" stroke-linecap="square"/>
</svg>
