<svg width="44" height="56" viewBox="0 0 44 56" fill="none" xmlns="http://www.w3.org/2000/svg">
<path d="M43.7538 21.305C43.6876 27.3399 41.9394 32.0504 38.44 36.0943C38.103 36.4843 38.0662 36.7757 38.2737 37.248C39.6452 40.3663 40.9785 43.5007 42.3294 46.6278C42.5104 47.0458 42.6664 47.4607 42.347 47.8713C42.0041 48.3084 41.5391 48.2157 41.0815 48.1215C39.217 47.7359 37.351 47.3577 35.4895 46.9604C35.1363 46.8854 34.9406 46.9589 34.7434 47.2871C33.7486 48.9353 32.7171 50.5614 31.7076 52.2007C31.4662 52.5936 31.2043 52.9482 30.6848 52.8953C30.1977 52.8467 29.9976 52.4759 29.8239 52.0697C28.6202 49.259 27.4062 46.4512 26.2009 43.6405C26.0876 43.3742 26.0067 43.1579 25.6241 43.227C23.7714 43.564 21.9025 43.6126 20.0336 43.4036C19.6377 43.3595 19.4935 43.4934 19.3434 43.8186C17.732 47.3121 16.1118 50.8012 14.471 54.28C14.3253 54.5876 14.0634 54.9275 13.7691 55.0555C13.2776 55.2689 12.9082 54.9599 12.6522 54.5155C11.6912 52.8482 10.7038 51.1941 9.76642 49.5136C9.5295 49.0883 9.28669 48.9735 8.81873 49.0603C6.92923 49.4135 5.0309 49.7196 3.13993 50.0713C2.71759 50.1493 2.36441 50.1081 2.09512 49.7829C1.79933 49.4268 1.88174 49.0397 2.06568 48.6483C3.72267 45.0959 5.36642 41.5377 7.03813 37.9927C7.22354 37.5983 7.2 37.3805 6.88803 37.0582C2.32468 32.3315 0.25565 26.6586 0.778059 20.1219C1.55063 10.4375 8.90997 2.4748 18.5002 0.791319C29.9902 -1.22621 40.9549 6.24349 43.3124 17.735C43.5979 19.1286 43.6655 20.5678 43.7538 21.305ZM22.1983 41.7334C33.0025 41.7834 41.8849 32.9613 41.9512 22.1129C42.0189 11.1953 33.2321 2.30851 22.2895 2.2261C11.4793 2.14664 2.54689 11.0011 2.48361 21.8583C2.42033 32.8098 11.2203 41.6819 22.1983 41.7334ZM4.3113 48.0538C6.11103 47.7448 7.80187 47.4563 9.49271 47.1635C10.2035 47.0413 10.4242 47.137 10.7921 47.7668C11.5676 49.0957 12.3387 50.4274 13.1128 51.7563C13.207 51.9181 13.3144 52.0727 13.4498 52.2831C14.8978 49.1692 16.309 46.1393 17.7423 43.0563C14.3666 42.3058 11.3763 40.8755 8.66568 38.7078C7.21471 41.8187 5.78876 44.8796 4.3113 48.0538ZM36.6476 37.95C34.0253 40.2957 31.0998 41.8702 27.777 42.7988C28.8218 45.224 29.8445 47.5991 30.907 50.0654C31.0748 49.8153 31.1866 49.6563 31.2882 49.493C32.1005 48.1862 32.9157 46.8809 33.7192 45.5683C34.015 45.0842 34.402 44.8737 34.9656 45.0444C35.1393 45.0974 35.3232 45.1209 35.5027 45.1563C37.0199 45.4638 38.5371 45.7714 40.1559 46.0981C38.9727 43.3521 37.8278 40.6915 36.6476 37.95Z" fill="white"/>
<path d="M38.6269 20.2557C38.4635 20.8311 38.309 21.4095 38.1339 21.9804C38.0809 22.1526 37.9735 22.3086 37.8896 22.4719C36.3842 25.4327 36.6594 24.6999 37.0228 27.8755C37.2392 29.7695 36.3812 31.4927 34.6565 32.3006C34.1091 32.5566 33.5558 32.8009 32.9893 33.0113C32.0563 33.3571 31.3455 33.9458 30.8437 34.8066C30.5582 35.2967 30.2345 35.7676 29.9151 36.237C28.835 37.8293 27.1015 38.4606 25.2532 37.9396C24.7249 37.791 24.1878 37.66 23.6772 37.4643C22.6662 37.0773 21.6802 37.1317 20.6751 37.4849C20.0541 37.7027 19.4214 37.9058 18.7783 38.0309C17.061 38.3634 15.6747 37.7675 14.6329 36.3886C14.1693 35.7749 13.8294 35.0642 13.3349 34.48C12.92 33.9914 12.4034 33.5543 11.8545 33.2247C11.2483 32.8598 10.5493 32.6508 9.89735 32.3594C8.06819 31.5383 7.13963 29.8283 7.42511 27.8476C7.52223 27.1765 7.65615 26.4996 7.64585 25.8271C7.63702 25.24 7.52518 24.6263 7.32063 24.0759C7.05428 23.3578 6.63782 22.6986 6.30819 22.0025C5.53708 20.3749 5.85053 18.5546 7.11902 17.2846C7.53401 16.8697 7.95635 16.4576 8.40812 16.0838C9.2219 15.4084 9.68839 14.5519 9.87969 13.5189C9.99006 12.9258 10.1284 12.3357 10.2961 11.7559C10.8083 9.98417 12.3048 8.82016 14.1325 8.73922C14.8477 8.70685 15.5703 8.71715 16.2737 8.60531C16.802 8.52143 17.3464 8.34631 17.8056 8.07849C18.4516 7.70176 19.027 7.2029 19.6303 6.75407C21.2594 5.5415 23.1459 5.53561 24.7779 6.73936C24.9545 6.87033 25.1473 6.98658 25.3032 7.13962C26.5629 8.38457 28.1139 8.73628 29.8298 8.74364C32.3241 8.75541 33.7339 9.94002 34.3019 12.3652C34.3063 12.3828 34.3107 12.4005 34.3137 12.4196C34.505 14.2723 35.3658 15.7189 36.8492 16.8564C37.9308 17.6864 38.5503 18.8136 38.6269 20.2557ZM36.7756 20.3588C36.7403 19.5391 36.5034 18.9784 36.0339 18.5237C35.4939 17.9998 34.9435 17.4862 34.3961 16.9697C33.6838 16.2972 33.2026 15.4952 32.9893 14.5328C32.8303 13.8176 32.6523 13.1083 32.4683 12.399C32.199 11.3557 31.5559 10.7008 30.4596 10.5684C30.0049 10.5139 29.5458 10.483 29.0881 10.4816C27.4753 10.4757 26.014 10.0636 24.7779 8.9732C24.435 8.67006 24.0539 8.41106 23.6786 8.14618C22.678 7.43835 21.7244 7.44424 20.7325 8.16236C20.1086 8.61414 19.492 9.07621 18.8695 9.52946C18.1382 10.0607 17.3229 10.3418 16.4164 10.3874C15.5923 10.4301 14.7683 10.4816 13.9486 10.5757C12.9008 10.6949 12.2681 11.3292 11.9826 12.3181C11.8413 12.8096 11.7236 13.3114 11.6368 13.8161C11.3792 15.3068 10.6714 16.5268 9.50739 17.4921C9.14096 17.7967 8.79956 18.1323 8.45963 18.4678C7.60906 19.3066 7.44277 20.2454 7.95929 21.3256C8.28304 22.0025 8.63327 22.6677 8.96143 23.3431C9.30284 24.0465 9.50886 24.7808 9.43528 25.574C9.35287 26.4496 9.26752 27.3252 9.18511 28.2008C9.06886 29.4487 9.55153 30.2624 10.7097 30.7731C11.3792 31.0689 12.0517 31.3588 12.7228 31.6516C13.5527 32.0121 14.2164 32.5713 14.7168 33.3262C15.1317 33.9531 15.5423 34.583 15.9646 35.2054C16.6416 36.2032 17.5834 36.5446 18.74 36.2179C19.0917 36.1178 19.4523 36.0339 19.7907 35.8986C21.4183 35.2525 23.037 35.2658 24.6631 35.9074C24.9854 36.0339 25.3283 36.1105 25.6623 36.2061C26.8543 36.5475 27.7828 36.2135 28.4789 35.1834C28.8998 34.5609 29.3089 33.9296 29.7253 33.3042C30.2168 32.5669 30.8687 32.0195 31.6781 31.6619C32.3815 31.3514 33.0952 31.063 33.7942 30.7422C34.8876 30.2404 35.3555 29.4163 35.2481 28.2287C35.2216 27.9373 35.1951 27.643 35.1451 27.3546C34.8346 25.6034 34.942 23.9244 35.9368 22.3778C36.1531 22.0408 36.3297 21.6714 36.4813 21.3006C36.6255 20.9489 36.7109 20.5736 36.7756 20.3588Z" fill="white"/>
<path d="M16.3119 29.0456C16.3752 28.7895 16.4517 28.4496 16.543 28.1155C16.8564 26.95 17.164 25.7831 17.4995 24.6235C17.5849 24.3292 17.5289 24.1702 17.2876 23.9819C16.2192 23.146 15.1685 22.2866 14.1105 21.4346C13.5071 20.949 13.3305 20.5016 13.5204 19.9159C13.7264 19.2831 14.2179 19.0521 14.8315 19.0227C16.1692 18.9579 17.5069 18.8917 18.8445 18.852C19.2315 18.8402 19.4258 18.693 19.5568 18.3281C20.01 17.0714 20.4927 15.8264 20.9724 14.58C21.2314 13.906 21.6376 13.5896 22.2085 13.5867C22.781 13.5837 23.1974 13.9016 23.4535 14.5668C23.9273 15.7955 24.4144 17.0213 24.8471 18.2648C25.0016 18.7092 25.2444 18.8461 25.6829 18.8579C26.9661 18.8917 28.2479 18.9579 29.5311 19.0138C30.1388 19.0403 30.6524 19.2316 30.8923 19.8497C31.1115 20.4133 30.9291 20.9475 30.3743 21.3963C29.3177 22.2484 28.2699 23.1107 27.1927 23.9363C26.8867 24.1702 26.8543 24.3807 26.9514 24.7191C27.3164 25.9847 27.6475 27.2591 28.0051 28.5276C28.1772 29.1397 28.1522 29.6945 27.6121 30.1183C27.1177 30.5068 26.6188 30.4774 25.939 30.0345C24.8176 29.3046 23.6934 28.5791 22.5838 27.8315C22.313 27.649 22.1217 27.6431 21.8495 27.8271C20.6781 28.6144 19.5008 29.3943 18.3074 30.1448C17.4142 30.7084 16.3222 30.1389 16.3119 29.0456ZM25.989 27.9316C25.6917 26.8294 25.4239 25.8258 25.1502 24.8251C24.8471 23.7185 24.9251 23.486 25.8418 22.7546C26.6365 22.1189 27.4267 21.4773 28.3229 20.7547C27.2251 20.7032 26.2627 20.6517 25.3003 20.6164C23.9994 20.5708 23.7743 20.4148 23.321 19.2155C22.9752 18.3016 22.625 17.3892 22.2703 16.4636C22.1865 16.5166 22.1408 16.5284 22.1305 16.5534C21.7936 17.4231 21.458 18.2942 21.1269 19.1669C20.6443 20.4398 20.45 20.5722 19.0756 20.6179C18.1323 20.6502 17.189 20.7047 16.1133 20.7547C17.0257 21.489 17.813 22.166 18.6459 22.7811C19.3596 23.3094 19.5936 23.9142 19.311 24.7809C18.9843 25.7831 18.7459 26.8147 18.4413 27.9375C19.4523 27.2753 20.3823 26.6925 21.2829 26.0671C21.9275 25.6197 22.5117 25.6241 23.1533 26.07C24.0539 26.694 24.9824 27.2738 25.989 27.9316Z" fill="white"/>
</svg>
