<svg width="42" height="42" viewBox="0 0 42 42" fill="none" xmlns="http://www.w3.org/2000/svg">
<path d="M34.2632 13.9998H3.31579C1.48735 13.9998 0 12.5124 0 10.684V3.31555C0 1.48711 1.48735 -0.000244141 3.31579 -0.000244141H34.2632C36.0916 -0.000244141 37.5789 1.48711 37.5789 3.31555V10.684C37.5789 12.5124 36.0916 13.9998 34.2632 13.9998ZM3.31579 2.21028C2.70631 2.21028 2.21053 2.70607 2.21053 3.31555V10.684C2.21053 11.2934 2.70631 11.7892 3.31579 11.7892H34.2632C34.8726 11.7892 35.3684 11.2934 35.3684 10.684V3.31555C35.3684 2.70607 34.8726 2.21028 34.2632 2.21028H3.31579Z" fill="white"/>
<path d="M24.6842 25.7893H3.31579C1.48735 25.7893 0 24.302 0 22.4735V15.1051C0 13.2767 1.48735 11.7893 3.31579 11.7893H34.2632C36.0916 11.7893 37.5789 13.2767 37.5789 15.1051V21.265C37.5789 21.8755 37.0839 22.3703 36.4737 22.3703C35.8635 22.3703 35.3684 21.8755 35.3684 21.265V15.1051C35.3684 14.4956 34.8726 13.9998 34.2632 13.9998H3.31579C2.70631 13.9998 2.21053 14.4956 2.21053 15.1051V22.4735C2.21053 23.083 2.70631 23.5788 3.31579 23.5788H24.6842C25.2944 23.5788 25.7895 24.0735 25.7895 24.684C25.7895 25.2946 25.2944 25.7893 24.6842 25.7893Z" fill="white"/>
<path d="M21 37.5786H3.31579C1.48735 37.5786 0 36.0913 0 34.2628V26.8944C0 25.066 1.48735 23.5786 3.31579 23.5786H24.6842C25.2944 23.5786 25.7895 24.0733 25.7895 24.6839C25.7895 25.2944 25.2944 25.7891 24.6842 25.7891H3.31579C2.70631 25.7891 2.21053 26.2849 2.21053 26.8944V34.2628C2.21053 34.8723 2.70631 35.3681 3.31579 35.3681H21C21.6102 35.3681 22.1053 35.8628 22.1053 36.4734C22.1053 37.0839 21.6102 37.5786 21 37.5786Z" fill="white"/>
<path d="M32.7896 8.10506H12.8948C12.2846 8.10506 11.7896 7.61035 11.7896 6.99979C11.7896 6.38924 12.2846 5.89453 12.8948 5.89453H32.7896C33.3997 5.89453 33.8948 6.38924 33.8948 6.99979C33.8948 7.61035 33.3997 8.10506 32.7896 8.10506Z" fill="white"/>
<path d="M26.8948 19.8946H12.8948C12.2846 19.8946 11.7896 19.3999 11.7896 18.7893C11.7896 18.1788 12.2846 17.6841 12.8948 17.6841H26.8948C27.505 17.6841 28.0001 18.1788 28.0001 18.7893C28.0001 19.3999 27.505 19.8946 26.8948 19.8946Z" fill="white"/>
<path d="M20.2632 31.6839H12.8948C12.2846 31.6839 11.7896 31.1892 11.7896 30.5787C11.7896 29.9681 12.2846 29.4734 12.8948 29.4734H20.2632C20.8734 29.4734 21.3685 29.9681 21.3685 30.5787C21.3685 31.1892 20.8734 31.6839 20.2632 31.6839Z" fill="white"/>
<path d="M7.00012 10.3157C5.17168 10.3157 3.68433 8.82831 3.68433 6.99987C3.68433 5.17143 5.17168 3.68408 7.00012 3.68408C8.82855 3.68408 10.3159 5.17143 10.3159 6.99987C10.3159 8.82831 8.82855 10.3157 7.00012 10.3157ZM7.00012 5.89461C6.39064 5.89461 5.89485 6.39039 5.89485 6.99987C5.89485 7.60935 6.39064 8.10514 7.00012 8.10514C7.60959 8.10514 8.10538 7.60935 8.10538 6.99987C8.10538 6.39039 7.60959 5.89461 7.00012 5.89461Z" fill="white"/>
<path d="M7.00012 22.105C5.17168 22.105 3.68433 20.6176 3.68433 18.7892C3.68433 16.9607 5.17168 15.4734 7.00012 15.4734C8.82855 15.4734 10.3159 16.9607 10.3159 18.7892C10.3159 20.6176 8.82855 22.105 7.00012 22.105ZM7.00012 17.6839C6.39064 17.6839 5.89485 18.1797 5.89485 18.7892C5.89485 19.3987 6.39064 19.8944 7.00012 19.8944C7.60959 19.8944 8.10538 19.3987 8.10538 18.7892C8.10538 18.1797 7.60959 17.6839 7.00012 17.6839Z" fill="white"/>
<path d="M7.00012 33.8945C5.17168 33.8945 3.68433 32.4072 3.68433 30.5787C3.68433 28.7503 5.17168 27.2629 7.00012 27.2629C8.82855 27.2629 10.3159 28.7503 10.3159 30.5787C10.3159 32.4072 8.82855 33.8945 7.00012 33.8945ZM7.00012 29.4735C6.39064 29.4735 5.89485 29.9693 5.89485 30.5787C5.89485 31.1882 6.39064 31.684 7.00012 31.684C7.60959 31.684 8.10538 31.1882 8.10538 30.5787C8.10538 29.9693 7.60959 29.4735 7.00012 29.4735Z" fill="white"/>
<path d="M32.7894 41.9998C32.6073 41.9998 32.4253 41.9548 32.2598 41.8649L26.4586 38.7006C24.6827 37.7317 23.5789 35.8727 23.5789 33.8489V22.6797C23.5789 22.1907 23.8998 21.76 24.3682 21.6205L32.4735 19.2038C32.6707 19.1451 32.8815 19.1422 33.0801 19.1966L41.1854 21.406C41.666 21.5373 41.9999 21.9741 41.9999 22.4724V33.8489C41.9999 35.8727 40.8961 37.7317 39.1195 38.7006L33.319 41.8649C33.1535 41.9548 32.9714 41.9998 32.7894 41.9998ZM25.7894 23.5036V33.8489C25.7894 35.0631 26.4514 36.1785 27.5171 36.7599L32.7894 39.6357L38.061 36.7599C39.1274 36.1785 39.7894 35.0631 39.7894 33.8489V23.3168L32.8031 21.4121L25.7894 23.5036Z" fill="white"/>
<path d="M32.0528 33.1584C31.8203 33.1584 31.5872 33.0857 31.3893 32.9375L28.4419 30.727C27.9541 30.3607 27.8548 29.6678 28.221 29.1795C28.588 28.6913 29.2803 28.5931 29.7688 28.9583L31.9491 30.5939L35.6924 26.8499C36.1241 26.4182 36.8235 26.4182 37.2553 26.8499C37.687 27.2813 37.687 27.9811 37.2553 28.4128L32.8342 32.8346C32.6205 33.0491 32.337 33.1584 32.0528 33.1584Z" fill="white"/>
</svg>
