<svg width="110" height="110" viewBox="0 0 110 110" fill="none" xmlns="http://www.w3.org/2000/svg">
<circle cx="55.8644" cy="57.7657" r="48.6026" transform="rotate(105 55.8644 57.7657)" fill="url(#paint0_linear_241_541)"/>
<path d="M62.1503 59.7865L60.8892 59.5956L60.4982 60.8096C58.7867 66.1224 56.2256 70.0088 52.8864 72.5984L52.8805 72.603C49.5327 75.226 45.8874 76.5107 41.9033 76.5107C37.6709 76.5107 34.1661 74.9227 31.2939 71.6805C28.4978 68.483 26.9958 63.8417 26.9958 57.5431C26.9958 51.7805 28.1581 46.0009 30.5019 40.1955L30.5031 40.1926C32.8388 34.3715 35.8925 30.2308 39.5935 27.6254C43.3994 24.9724 47.4405 23.6698 51.7477 23.6698C55.7187 23.6698 58.7149 24.6758 60.8969 26.5369L60.9059 26.5446L60.915 26.5521C63.1031 28.3597 64.7146 31.4074 65.5685 35.9615L65.8214 37.3104L67.1875 37.1781L83.2612 35.6208L84.786 35.473L84.6062 33.9517C83.6049 25.4796 80.2503 18.6836 74.4779 13.6954C68.6974 8.66291 61.184 6.20898 52.0814 6.20898C43.9461 6.20898 36.4078 8.32373 29.4968 12.5471C22.5557 16.7889 17.1426 22.9109 13.2478 30.8533L13.2465 30.8559C9.39323 38.7532 7.47713 47.4535 7.47713 56.9313C7.47713 68.5819 10.3341 77.7175 16.2783 84.0948L16.2816 84.0984C22.2598 90.4698 30.4965 93.5822 40.7909 93.5822C49.9425 93.5822 57.9896 91.087 64.8685 86.0631L64.8729 86.0599C71.7546 80.9953 76.8636 73.7213 80.2451 64.3365L80.8643 62.6182L79.0583 62.3449L62.1503 59.7865Z" stroke="#B92A69" stroke-width="3"/>
<path d="M61.9259 61.2696L78.8339 63.828C75.5339 72.9865 70.5839 79.9945 63.9838 84.8518C57.3837 89.6721 49.6528 92.0822 40.7909 92.0822C30.8166 92.0822 23.0115 89.0788 17.3755 83.072C11.7766 77.0652 8.97713 68.3517 8.97713 56.9313C8.97713 47.6616 10.8496 39.189 14.5946 31.5137C18.3766 23.8013 23.6048 17.9057 30.279 13.827C36.9532 9.74833 44.2207 7.70898 52.0814 7.70898C60.9062 7.70898 68.0439 10.082 73.4946 14.8281C78.9452 19.5372 82.1525 25.9704 83.1165 34.1278L67.0428 35.6851C66.1529 30.939 64.4287 27.5092 61.8703 25.3957C59.3489 23.2451 55.9747 22.1698 51.7477 22.1698C47.1129 22.1698 42.7746 23.5788 38.733 26.3968C34.7285 29.2148 31.5211 33.6272 29.111 39.634C26.7009 45.6037 25.4958 51.5734 25.4958 57.5431C25.4958 64.069 27.0531 69.1118 30.1678 72.6714C33.3195 76.2309 37.2313 78.0107 41.9033 78.0107C46.2415 78.0107 50.209 76.6017 53.8056 73.7837C57.4394 70.9657 60.1461 66.7943 61.9259 61.2696Z" fill="white"/>
<defs>
<linearGradient id="paint0_linear_241_541" x1="55.8644" y1="9.16307" x2="55.8644" y2="106.368" gradientUnits="userSpaceOnUse">
<stop stop-color="#682FA8"/>
<stop offset="1" stop-color="#F92638"/>
</linearGradient>
</defs>
</svg>
